<?xml version="1.0" encoding="UTF-8"?>
<svg id="_图层_1" data-name="图层 1" xmlns="http://www.w3.org/2000/svg" viewBox="0 0 1254 460.82" preserveAspectRatio="xMidYMin slice" style="overflow: visible">
  <defs>
    <style>
      .cls-1 {
        opacity: .9;
      }

      .cls-2 {
        opacity: .8;
      }

      .cls-3 {
        opacity: 0;
      }

      .cls-4 {
        opacity: .5;
      }

      .cls-5 {
        opacity: .7;
      }
    </style>
  </defs>
  <g class="cls-5">
    <path class="cls-3" d="M963.03,6.33c.31-1.64-.66-1.72,1.97-1.51-2.74-2.3-4.98-6.3-9.71-4.26-2.26.97-16.81,12.46-19.3,14.76M965,4.82"/>
    <path class="cls-2" d="M1254,286.82v4c-5.43.33-9.52,4.88-14.74,5.76-4.18.7-8.51-.21-12.64.36-9.13,1.27-34.69,9.66-41.12,1.87-.89-1.08-1.08-2.62-1.62-3.87-1.57-1.14-12.51,3.38-15.46,3.8-3.8.54-7.49-.45-11.45.55-6.02,1.53-11.24,9.62-16.74,10.35-3.58.47-6.2-2.09-9.74-1.9l-23.5,2.09c1.09,2.37,4.91,1.29,6.49,4.02.64,1.11.2,6.83-.49,7.97.45-.58,3.1-4.12,3.99-3,1.18,4.75.55,7.52-.98,12l3.99-1.99-5.99,9.99,4.99-1.5c-5.51,7.71-6.89.18-9.64-.34s-7.33,6.04-11.91,2.89,7.67-8.93,9.58-10.52c3.17-2.64,3.98-4.93,5.97-7.53-.85,1.38-6.43,5.37-7.99,7l4.04-14.4c-3.41-.72-5.8-9.93-9.08-8.16-1.44.78-5.33,10.72-6.8,13.23-4.29,7.32-10.03,13.77-14.74,20.25-1.63,2.25-4.17,3.84-5.42,6.58l6.99-3.5c.22,2.8-2.68,3.77-4.33,5.16-.88.75-3.24,1.96-.19,1.82,3.82-1.85,11.63-8.27,13.43-1.63l-7.91,8.64c4.15.55,5.28-3.55,7.5-5.99,1.15.33.42,2.2-.02,2.98-4.33,7.72-20.78,10.52-27.97,16.03-3.23.42.06-3.27-.52-5.01-1.05-.99-7.7,3.44-7.03-2.47.62-5.5,12.4-9.22,15.48-12.58.8-.87,7.97-11.67,8.08-12.42.17-1.22-.84-2.77-.34-4.76.41-1.63,10.13-16.68,11.77-18.31,2.68-2.66,6.17-3.25,8.04-6.45-6.07,2.62-11.08,4.31-17.83,2.32-2.59-.76-4.78-3.71-7.42-3.16-3.09.64-6.39,6.15-10.52,7.56-10.59,3.63-22.84,3.65-33.7,3.22-11.49-.46-11.69,7.65-16.07,8.08l-10.45-4.03c1.21,18.94,19.13,28.04,27.4,42.09,1.67,2.83,2.3,6.77,3.54,8.46,1.87,2.56,8.51,6.64,11.47,10.53,1.43,1.88,6.59,10.74,6.59,12.41v15c0,.13,2.71,3.03,0,2.01-3.6-4.36-1.37-10.63-2.08-15.92-1.29-9.6-15.74-22.07-23.41-27.59-4.77-3.43-11.1-6.58-16.49-9.01-.25-1.82,2.16-.92,3.05-.55,1.16.49,7.56,5.01,7.94,4.56l-1.99-4.99c1.7-1.43,4.12,4.81,5.95,6.54,1.07,1.01,2.45,1.5,3.55,2.45.67.21.72-.88.48-1.48-3.17-7.76-18.68-18.39-24.81-29.19-4.53-7.99-1.49-5.61-8.68-12.32-3.29-3.07-6-6.73-10-9-.92,3.3-.23,6.63-.94,10.05-.76,3.71-5.59,9.44-5.52,11.45.04,1.39,3.58,5.97,4.32,8.73s-.47,6.11,1.58,8.33c2.35,2.54,7.41.4,9.37,4.72,1,2.2-.98,12.84,1.7,16.71-5.76-2.78-1.22-13.67-3.45-17.04-13.03-3.31-9.33-3.95-11.96-14.03-.56-2.13-2.18-3.75-2.6-5.92-2.63-2.2-3.65,8.79-5.98,5.99-1.12-1.35,7.75-15.76,8.72-18.77.46-1.45,2.99-10.12-.18-9.19-11.76,3.47-19.77,10.65-29.87,16.14s-26.4,11.79-35.17,18.83c-2.98,2.39-4.98,6.26-7.73,8.27-3.08,2.25-7.08,2.64-10.45,4.55-7.49,4.23-12.05,10.02-21.06,11.94-16.62,3.55-18.35,1.6-34.17,10.83-9.69,5.65-12.62,5.98-21.8,10.2-6.74,3.1-14.3,10.54-22.01,12.99-4.87,1.55-8.73.82-13.51,2.49-10.58,3.7-21.2,13.43-30.73,19.27l-31.56,14.45c-2.92.22-.85-1.2.17-1.84,3.84-2.42,8.42-3.58,12.4-5.6,11.49-5.84,19.2-11.58,29.64-18.36,5.61-3.64,15.03-10.24,21.25-11.75,3.96-.96,7.8-.32,12.05-1.95,3.95-1.51,8.65-5.56,12.01-7.49,8.62-4.96,14.09-5.67,22.04-9.46,6.19-2.95,11.64-8.7,18.28-11.72,11.15-5.09,23.69-3.37,32.74-8.26,3.39-1.84,6-5.12,9.65-7.35,3.93-2.4,10.73-4.09,13.57-6.17,1.69-1.24,4.29-5.53,6.72-7.54,8.86-7.32,22.64-11.84,32.7-17.3,11.22-6.09,22.82-16.46,36.05-18.96,9.83-1.85,10.68,6.27,17.77,10.77-1.34-11.57,10.31,1.4,16.07-2.93,1-.75,1.48-2.73,3.07-3.93,5.59-4.21,15.03-1.01,21.63-2.37,8.89-1.83,13.87-13.12,20.39-17.61,5.73-3.94,28.72-15.89,34.86-16.16,2.08-.09,2.87-.61,2.47,1.99-1.73.12-3.75-.3-5.41.09-4.05.96-28.87,13.89-32.34,16.66-3.77,3.01-7.22,8.42-11.22,11.78-1.79,1.51-4.18,1.8-5.02,3.46,5.34-2.26,13.42-1.68,18.28-3.2,1.76-.55,3.42-3.38,5.38-4.62,4.89-3.1,11.99-3.98,17.79-4.21,3.21-.12,9.18-.96,10.54,2.03l-16,1.02c7.7,9.64,20.23-5.69,26.99-2.49,1.52.72,1.86,2.95,4.53,3.46,4.96.96,10.53-.92,15.48-.98-4.52-10.57-9.81-21.23-9.99-32.99,12.29.18,17.12,13.58,24.98,20.51,1.35,1.18,8.32,6.13,9.5,6.14,1.65.02,4.98-2.96,7.23-3.42,4.35-.9,9.41.39,13.72-.29,4.6-.73,9.96-6.23,15.57-3.45,2.12,1.05,2.78,5.94,6.55,6.52,5.19-1.28,10.85-.46,15.84-1.12,5.49-.73,11.55-2.96,17.23-3.77,4.17-.6,8.48.42,12.64-.36,5.14-.95,11.11-5.98,16.74-6.76ZM1127.2,304.62c7.91.19,13.78,3.71,19.78-3.3-12.7-6.19-18.38-19.18-29.97-26.5,1.12,10.57,5.12,20.59,10.19,29.8ZM1081.98,331.82l11.01-18.99c-4.86,3.84-7.18,9.18-10.15,14.34-.72,1.25-2.51,2.44-2.83,3.18-.71,1.65,1.34,2.03,1.97,1.48ZM1099,337.81c4.74.66,7.34-3.92,12.06-2.44l4.93-12.55c-2.65,2.14-3.27,4.97-5.97,7.52-3.37,3.17-8.11,4.06-11.02,7.47ZM1086,347.83l-16.39,7.05-1.13-2.12c-2.59.5-12.92,7.2-12.47,9.54,1.67,2.52,4.53-.23,7,.53l.48,3.98c8.36-5.59,16.43-10.71,22.52-18.98Z"/>
    <path class="cls-2" d="M1254,366.82c-5.75,4.69-11.05,10.19-15.01,16.49,1.12,1.46,3.55-.78,4.49-1.51,3.67-2.81,6.49-7.46,10.52-9.98v3c-4.43,2.96-7.2,7.97-12.11,10.38-9.61,4.72-5.02-3.86-1.4-8.39,3.29-4.12,9-9.31,13.51-11.99v2Z"/>
    <path d="M0,413.82c5.16-.99,4.94-10.05,9.72-10.8,9.49-1.48,11.55,8.86,20.78,8.88,8.62.02,6.73-5.28,12.77-7.31,2.38-.8,4.46-.63,6.8-1.2,1.83-8.43-3.23-24.36,10.98-23.12l26.71,14.37c3.55,1.42,5.91-2.69,9.37-2.31,5.98.66,10.36,6.63,19.4,5.55,3.78-.45,5.21-3.21,8.24-4.78,1.67-.87,4.28-.6,6.19-1.81,2.02-1.28,2.49-4.59,4.74-5.29,5.44-1.68,14.63,5.15,19.68,4.56,3.31-.38,7.51-5.83,10.28-7.57,2.46-1.55,21.04-6.76,24.11-6.9,3.44-.15,7.78,1.55,11.56.78,1.26-.3,4.11-11.12,8.61-12.6s16.07-.31,21.55-.45c1.96-.05,3.95-1.12,6.03-1.09,3.72.05,6.45,2.86,9.79,4.29,5.32,2.27,8.95,1.37,12.34,7.73,2.36.71,4.15-2.06,6.1-2.67,8.83-2.77,3.17,8.12,3.68,11.81,1.43,10.47,14.83,16.87,4.02,29.91-3.76,4.54-7.21,3.02-11.83.91-8.18-3.73-10.73-7.07-7.62-15.87l-9.1-2.41c-2.18-2.86.05-8.76-1.05-10.45-.42-.66-5.41-1.19-6.86-2.65-1.17-1.17-.94-3.83-2.64-4.41-2.65-.91-5.04,1.85-9.28-.66-1.68-1-10.51-10.51-5.6-8.41,1.97.85,4.86,6.1,7.22,6.8,2.87.85,6.16-.89,8.03-.09,2.76,1.19,2.54,4.42,4.31,5.74,1.57,1.18,4.72.98,5.98,2.02,2.21,1.83.28,8.49,1.12,11.37,3.63,2.28,10.02-.98,9.94,4.63-.03,2.17-1.72,3.87-1.73,5.02-.03,3.67,10.85,9.85,14.15,9.54,2.35-.23,7.34-8.8,7.21-11.38-.27-5.26-7.59-12.78-8.52-18.42-.58-3.49,1.15-6.13,1.37-9.21.45-6.49-5.17,1.4-9.02,1.01-3.08-.25-3.34-4.19-5.58-5.49-3.47-2.01-11.55-2.66-15.54-5.51-6.14,2.11-25.42-.79-29.14,2.26-1.66,1.36-6.03,8.92-2.3,10.21-1.2,1.72-3.41,1.55-4.98,2.5-.15-.92.11-2.03,0-3-4.35,2.7-11.81-2.1-7.84,5.35,2.84,5.33,8.96,5.59,4.85,12.64l4.99,1.01c2.1-4.98-7.35-12.78-1.99-16,.95,5.76,8.42,15.87,1.11,17.51-7.13,1.6-3.94-5.9-4.58-7.48-.44-1.08-3.8-3.5-4.97-5.08-1.94-2.63-1.84-6.99-5.89-6.65-2.28.19-4.33,2.03-6.43,2.46-3.65.75-7.42.43-11.16,1.84-4.72,1.78-9.86,8.8-13.67,9.4-5.55.87-14.58-5.43-19.73-3.83-1.94.6-2.39,3.67-5.08,4.9-2.21,1-4.43.83-6.35,1.7-3.6,1.63-2.88,3.75-8.71,4.28-10.25.94-13.73-4.71-19.13-5.04-2.32-.14-3.87,1.64-5.99,1.96-6.75,1.01-10.62-4.12-16.07-6.82s-11.47-4.79-16.87-7.86c-4.63,3.23-5.83,7.75-5.48,13.2.52,8.11,10.13,10.55,14.99,16.02,3.33,3.75,5.35,9.54,5.99,14.49l-7.59-13.89-11.88-9.11c-3.36,2.73-7.93,2.3-11.26,3.77-2.46,1.09-4.94,4.78-7.92,6.08-12.16,5.28-16.68-10.12-24.64-7.69-3.24.99-6,10.65-10.7,10.85v-2Z"/>
    <path d="M302,294.32l1.64-1.41c2.78-.85,6.64,2.25,8.84,3.94,6,4.61,15.77,13.26,21.55,18.45,4.11,3.69,7.82,10.99,11.62,13.38,1.81,1.14,11.38,7.09,12.33,7.53,7.24,3.35,25.28,6.66,31.55,11.59,2.49,1.96,3.46,5.39,5.48,7.52,4.52,4.79,17.7,10.86,14.85,19.85-.55,1.74-3.3,2.23-3.85,1.65-1.85-1.91,2.05-3.33,2.06-3.55.15-7.34-17.19-14.88-19.55-22.46l-28.51-12.49c5.71,4.6,10.61,10.08,15.98,15.02,20.14,18.55,35.42,31.92,60.34,44.66,9.73,4.97,16.28,3.76,24.66,7.34,2.83,1.21,8.59,4.39,7.52,7.48-5.77-8.42-13.36-6.7-21.56-8.44-10.01-2.12-35.69-17.91-44.41-24.59-16.52-12.66-32.38-33.06-49.03-44.97-3.49-2.49-8.09-3.03-10.76-4.97-2.53-1.84-6.35-8.48-9.73-11.54-3.38-3.06-8.33-5.83-12.02-8.98-5.12-4.36-9.43-10.86-15.99-13.51v15.5c0,.84,4.95,11.26,5.99,13.01.22.69-1.03.72-1.48.49-1.04-.54-7.51-14.25-7.51-15.49v-15Z"/>
    <path d="M369.72,369.1c1.23,1.26,2.34,5.58,3.84,7.66,3.65,5.07,10.48,14.79,15.75,17.25,2,.94,4.38.9,6.23,1.77,10.81,5.06,26.43,25.32,31.98,36.02.78,1.51,3.01,4.42,1.99,6.01-7.92-13.15-17.49-28.7-30.02-37.98-1.34-.99-2.64-2.25-4.48-2.01,2.37,3.91,6.96,6.29,9.21,10.28,6.07,10.78,4.21,23.78,16.86,33.14,9.57,7.08,15.79,2.3,21.91,5.09,1.74.79,5.4,5.78,7.54,7.46,3.44,2.69,7.66,3.87,10.48,7.01-7.88.17-14.66-11.44-19.3-13.27-2.31-.91-9.55.46-14.69-1.23-22.11-7.28-17.44-34.71-33.51-47.49-3.33-2.65-8.32-4.38-11.49-7.51-4.7-4.65-10.58-17-14.48-20.52-3.33-3.01-8.38-2.23-11.91-4.09-3.84-2.03-7.17-8.42-10.26-10.74-2.87-2.15-7.92-2.86-11.27-4.23-2.09-4.6,6.84-7.24,4.46-10.95-.46-.72-10.22-4.59-13.03-6.99-1.26-1.08-4.64-3.65-3.03-4.97l2.5,1.99c1.16-7.21-11.18-7.14-12.98-11.51-1.66-4.03,4.74,1.45,5.28,1.73,3.27,1.7,6.68,1.8,8.49,5.51,1.16,2.38.69,5.23,2.67,7.33,3.7,3.92,15.37,2.81,12.39,11.28-.68,1.93-6.33,3.14-3.84,5.16,1.97,1.6,6.17,2.19,8.93,4.07,3.68,2.5,6.98,8.12,10.71,10.29s10.78,2.08,13.08,4.42Z"/>
    <path class="cls-2" d="M1044,325.83c.71,9.33-4.52,24.7-11.01,31.48-.75.78-1.98,2.62-2.98,1.03,5.35-9.22,9.43-19.19,11.99-29.5-3.59-2.85-6.35,12.86-6.96,14.53-1.69,4.61-3.89,9.65-5.79,14.26-.61,1.48.61,2.72-2.24,2.2-.02-8.81,6.95-16.36,7.98-24.99-5.9,3.78-10.88,14.09-18.98,11.51l15.99-16.5-17.51,11.98c-.67.22-.73-.95-.49-1.48,1-2.23,15.6-13.55,17.5-13.49,4.98,5.29-5.87,10.38-8.5,14.48-.16.74,1.04.68,1.48.49,2.94-1.31,15.95-19.63,19.51-15.99Z"/>
    <path class="cls-2" d="M1171.99,315.83c1.98,2.08-8.65,19.05-9.01,22.99-4.75-1.64,3.44-7.85.02-9.99-.33,1.86-1.15,3.74-2.19,5.32-5.49,8.3-13.22,20.01-19.86,27.14-8.54,9.18-20.16,14.92-24.5,28.5l-1.46,10.02c-2.48-7.08.58-13.29,4.17-19.32,5.95-9.99,13.76-13.22,20.8-21.2,6.23-7.06,14.29-19.4,19.44-27.56,3.38-5.37,4.93-15.23,12.58-15.91Z"/>
    <path class="cls-2" d="M1126.99,342.83c-2.27,6.51-3.1,13.54-7.16,19.33-2.2,3.14-10.06,9.97-13.34,12.66-1.13.93-1.61,2.43-3.5,1.99,1.36-11.05,8.27-17.17,14.99-24.99-4.34,1.47-6.89,4.54-11.56,5.93-.86.25-9.95,2.65-8.43-.43l15.51-10.5c4.84.92-5.28,5.93-6.87,7.14-.93.7-3.15,2.02-.17,1.84l20.51-12.98ZM1108.98,370.82c3.86-6.94,11.52-11.15,13.01-19.99-5.47,5.96-11.24,12.38-14.98,19.51l1.97.48Z"/>
    <path class="cls-1" d="M852,404.82c10.89-3.98,25.37-5.84,34.52-13.98,6-5.34,9.49-14,18.21-15.78,1.55-.32,6-.05,6.23-.28.19-.2-.08-2.65.56-3.9,1.57-3.08,7.64-7.52,11.47-7.05l-8.03,5.46c-1.7,9.22-8.17,5.6-13.92,9.08-5.09,3.08-9.83,12.04-15.71,16.29-7.4,5.35-16.35,4.76-21.76,12.24-2.64,3.65-3.41,8.93-7.06,11.92l-8-11.95-12.49,12.97c.62-2.44,3.35-5.57,5.02-7.47,4.42-5.05,5.04-5.36,10.97-7.53l-.42,1.98,5.41,10.02c1.56-5.87,4.97-10.64,9.01-14.98l-14,2.99Z"/>
    <path class="cls-2" d="M1248.99,297.83c1.49,1.84-3.27,5.95-2.98,7.99l3.51-2.99c5.15,1.18.91,7.49-.72,10.29-5.49,9.45-8.38,9.47-15.73,15.27-6.23,4.92-9.21,16.31-16.06,21.43l11.97-21.52c6.43-4.78,16.87-12.39,20.01-20,.19-.46.26-1.64-.48-1.48-3.08,2.29-6.07,8.29-10.51,7.49,1.95-5.24,5.13-10.12,8.43-14.6.36-.49,1.11-3.69,2.57-1.89Z"/>
    <path class="cls-2" d="M1094.61,358.91c1.43-.22,2.36,1.03,2.38,2.36.08,4.66-14.75,20.28-21.02,17.09-4.44-2.86,7.07-9.24,8.53-10.53,3.03-2.68,5.52-7.01,10.11-8.92ZM1088,369.83c-4.47-.4-8.48,2.99-9.99,6.98.95.84,11.82-5.41,9.99-6.98Z"/>
    <path class="cls-4" d="M915.99,432.82c-1.84-.31-1.07-5.12-.98-6.49.37-5.61,1.35-13.14,2.25-18.75.71-4.43,3.09-8.92,3.63-13.37.45-3.73-.55-8.26.35-11.65.75-2.82,8.09-12.59,10.75-14.74-1.5,5.65-8.7,11.31-9.6,16.98-.44,2.78.79,5.21.53,8.39-.33,4.15-2.92,9.05-3.65,13.4-1.45,8.65-2.05,17.54-3.28,26.22Z"/>
    <path class="cls-2" d="M1148.99,341.82c-1.85.23-.87-2.09-.53-3.03,3.85-10.56,10.39-24.41,20.53-29.96,1.29,1.54-9.22,12.24-10.8,14.69-3.67,5.71-5.88,12.39-9.21,18.3Z"/>
    <path class="cls-2" d="M1192.01,348.82c.28-3.44.4-5.17-3.01-6.5l15.99-13.5c-.28,6.96-7.46,16.12-12.98,20ZM1193.01,343.82c1.92.42,2.39-.98,3.4-2.09,2.26-2.49,5.29-6.75,6.59-9.9-1.87,1.39-11.88,9.91-9.98,11.99Z"/>
    <path class="cls-2" d="M1231,371.83c-1.68,3.03-15.47,15.37-17.99,12.98.23-9.01,9.78-14.16,17.99-12.98ZM1227,373.83c-6.05-.28-10.13,3.49-11.99,8.98l6.48-4.01,5.52-4.97Z"/>
    <path d="M337,383.82c3.68-10.4,2.71-14.3-.99-25,8.79,10.41,5.71,22.89-.03,34-4.3.87.25-6.84,1.02-9l-6.18-8.32-5.81-16.68c5.63,3.24,4.98,10.46,6.94,15.55,1.28,3.32,4.71,5.74,5.05,9.45Z"/>
    <path class="cls-2" d="M1198,309.81l-10.48,5.03-12.52,12.97c1.61-8.08,12.33-17.71,19.98-19.57,1.77-.43,2.42-.3,3.01,1.56Z"/>
    <path class="cls-2" d="M1252,321.83l-24.58,20.91-2.39-.42c1.59-4.72,5.9-4.19,9.03-6.95,2.5-2.21,4.21-6.12,7.45-8.55,2.45-1.83,7.45-4.07,10.49-5Z"/>
    <path class="cls-2" d="M1173,394.83c-8.17,6.21-7.16,16.81-14.99,22.99l8.15-17.34,6.84-5.65Z"/>
    <path d="M276.01,327.82c-.64-.71,6.05-9.33,7.02-10.47,2.62-3.06,5.81-6.02,8.96-8.53l-12.02,15.47-3.96,3.53Z"/>
    <path class="cls-4" d="M1042.99,426.82l-5.17-11.32-8.82-10.67c1.72-1.59,9.78,9.33,10.65,10.84,1.92,3.36,3.78,7.16,3.34,11.14Z"/>
    <path d="M274.99,324.8c-.43.51-6.13,2.92-7,4.51l-9.98,11.51c1.68-7.89,10.24-13.73,16.5-17.99l.48,1.97Z"/>
    <path class="cls-2" d="M1174,393.81c3.85-5.37,10.73-8.56,14.43-14.06,2.42-3.59,2.6-7.11,4.08-10.92.62-1.61,1.96-5.22,3.48-6.01-2.39,11.02-5.97,18.58-14.52,25.97-1.94,1.67-5.01,4.39-7.47,5.02Z"/>
    <path class="cls-4" d="M977.99,414.82l5,14.01c-3.07-1.82-5.29-6.83-6.31-10.18-.59-1.96-1.91-4.43,1.31-3.82Z"/>
    <path d="M289,358.83l-12.99,12.99c-.44-1.87,1.04-2.38,1.99-3.5,2.66-3.16,7.22-7.98,11-9.49Z"/>
    <path d="M192,354.83l-12.99,12.99c-.44-1.87,1.04-2.38,1.99-3.5,2.66-3.16,7.22-7.98,11-9.49Z"/>
  </g>
</svg>