<?xml version="1.0" encoding="UTF-8"?>
<svg id="_图层_1" data-name="图层 1" xmlns="http://www.w3.org/2000/svg" viewBox="0 0 1254 462.23"  preserveAspectRatio="xMidYMin slice" style="overflow: visible">
  <defs>
    <style>
      .cls-1 {
        opacity: 0;
      }

      .cls-2 {
        opacity: .7;
      }
    </style>
  </defs>
  <g class="cls-2">
    <path class="cls-1" d="M957.68,3.54c.3-.13.58-.23.86-.31l5.57-2.64c-8-3.05-18.75,6.51-24.73,11.7l18.38-8.69-.08-.06Z"/>
    <path d="M668.39,221.79l-21.34,9.85c-6.96-4.74-14.52-7.28-22.61-9.39-3.02-.79-6.39-.13-9.34-1.66-4.25-2.19-3.31-8.3-11.2-6.8-5.31,1.01-4.82,15.04-7.46,18.56-1.48,1.99-9.01,4.82-11.51,4.48-3.56-.49-3.95-5.03-5.84-6.72-1.41-1.26-4.42-1.47-5.46-2.55-1.08-1.13-1.26-4.4-2.38-6.13-4.62-7.13-23.3-3.52-29.25-7.74-4.67-3.31-3.52-18.65-13.66-15.44-9.01,2.85-15.67,24.69-30.74,29.27-10.12,3.07-14.24,1.26-22.19,10.81-7.68,9.21-7.57,24.76-16,35-5.99,7.27-14.77,13.71-20.99,21.01-13.01,15.26-20.34,33.78-33.03,48.97,2.45.89,5.99-3.88,7.41-5.59,9.89-11.87,16.09-27.17,26.61-39.39,6.96-8.09,19.91-17.52,25.41-25.59,6.14-9.02,6.97-24.54,14.05-32.95,9.03-10.72,16.43-6.4,26.42-12.58,10.88-6.72,12.98-16.51,20.55-23.45,10.1-9.26,8.78,7,13.6,11.48,5.34,4.96,21.64,2.45,27.89,6.11,2.72,1.59,2.85,5.72,4.57,7.43,2.82,2.79,3.18,1.29,7.47,6.53,5.79,7.07,17.35,3.06,20.51-4.5.98-2.35,2.45-15.66,6.55-14.61,2.87.73,6.75,8.53,9.42,10.64,4.87,3.84,12.02,5.26,18.05,10.95,6.96,6.57,7.93,14.42,16.8,19.2,5.55,2.98,12.86,4.06,18.19,7.81,2.92.22.85-1.2-.17-1.84-7.61-4.79-17.94-5.83-23.78-13.22-2.05-2.59-3.45-6.72-5.57-9.43-5.79-7.43-14.1-11.37-22-16l19.26,4.74c21.22,8.5,33.67,26.85,49.73,41.27,2.75,2.47,7.04,4.09,9.42,6.58,3.64,3.82,5.86,11.53,8.79,16.21,6.4,10.19,20.75,17.46,30.37,24.63,5.19,9.73,2.74,20.48,10.09,29.81,4.73,5.99,13.68,7.41,17.87,12.23,3.54,4.07,4.57,10.1,7.28,14.72,2.88,4.91,13.16,14.09,18.25,16.75,3.62,1.89,7.09,1.83,10.49,3.51,4.11,2.03,6.05,6.88,10.45,8.05-2.35-2.76-5.64-6.97-8.67-8.83-3.42-2.11-8.95-2-10.81-4.19-1.91-2.25-2.71-9.65-4.71-13.29-1.6-2.91-5.82-7.79-8.81-7.19,6.29,4.97,9.99,11.87,10.5,19.5-4.27-4.8-10.76-8.26-14.34-13.66-3.12-4.71-3.84-10.75-7.65-15.35-4.58-5.54-13.25-7.35-18.06-12.94-7.77-9.05-4.74-23.71-10.6-30.4-2.43-2.78-13.54-8.85-17.76-12.24-3.02-2.43-6.58-5.01-9.12-7.88-5.43-6.1-6.64-13.94-11.97-20.03.6-1.42,1.89-.05,2.69.31,17.81,8.02,45.17,29.19,57.28,44.72,4.31,5.53,7.57,13.34,11.99,18.01,3.86,4.09,10.69,7.31,14.58,11.42,5.76,6.06,9.93,19.59,15.75,23.25,2.26,1.43,13.84,5.93,15.27,3.83,3.8-5.6-8.71-12.52-10.75-16.35-3.36-6.31-.75-12.68-2.03-18.97-1.06-5.22-9.4-16.33-14.48-18.52-8.41-3.61-26.5-5.74-33.23-9.77-2.73-1.64-8.79-10.29-12.59-13.41-9.76-8.01-28.49-21.18-39.8-26.2-2.74-1.22-5.85-1.22-8.59-2.41-9.62-4.19-20.17-19.94-28.57-27.43-4.32-3.85-9.95-7.82-14.9-10.89l-.62-2.07c4.94-1.67,10.2-3.47,14.98-5.53,3.72-1.6,7.67-4.89,11.2-5.8,4.53-1.17,8.97.07,12.87-1.13,3.39-1.04,6.02-6.49,8.63-7.41,3.28-1.15,2.74,3.63,5.94,4.61l10.68-.96,7.33-7.61c3.6.55,6.01,2.78,9.87,2.91,4.71.16,7.85-2.58,12.91-2.03,3.71.41,7.74,3.75,11.09,3.78,2.79.03,5.34-2.08,8.75-1.66,4.14.51,7.46,5.63,10.24,5.75,2.4.1,6.32-3.01,9.53-1.94-1.66,11.57,13.77,4.83,21,9.02-5.06,12.98-12.27,24.18-19.6,35.89-.53.85-2.5,2.18-.9,3.1,9.32-11.12,16.73-24.65,21.63-38.37,2.42-2.73,5.79-4.22,9.37-4.63,11.6-1.33,26.03.2,37.9-1.1,7.7-.85,15.74-5.25,23.36-6.64,7.15-1.3,16.52-.12,22.7-1.3,2.96-.56,4.78-4.39,8.54-2.49,1.94.98,2.53,5.46,5.5,5.58,3.05,0,5.79-7.4,6.51-10.03,1.78.32,1.52,3.13,2.92,4.56,3.31,3.37,18.02-.86,23.36.23,3.62-1.47,4.83-6.17,7.05-8.45,3.49-3.58,11.41-7.2,16.18-11.32,7-6.04,11.32-13.04,17.1-19.8,8.17,2.18,17.66,3.33,25.43-.67,4.11-2.12,4.61-5.03,10.43-4.61,5.92.42,7.31,4.67,11.16,6.91l.84-3.84c-2.27-1.48-11.96-7.71-16.52-6.55-3.69.94-6.9,4.88-10.13,5.87-5.32,1.64-12.59-.76-12.85,1.65-12.91-5.81-12.77,1.77-19.48,9.02-3.15,3.4-7.53,8.11-10.99,11.01-7.18,6.03-15.47,8.86-20.2,17.88-6.42-1.82-11.38.32-17.68,1.02-2.7-.88-.99-7.99-7.12-6.97-2.96.49-5.27,7.17-5.53,10.05-2.29-.45-2.13-3.66-3.23-4.74-3.43-3.34-10.05,1.83-14.52,2.48-5.17.75-10.44-.15-15.62.38-10.48,1.08-20.53,6.73-32.25,7.75-10.66.92-24.57-.35-34.81,1.19-3.02.46-7.16,3.77-9.05,3.86-1.74.08-3.99-1.62-6.1-1.84-6.38-.67-11.87,2.72-11.92-6.08-3.4-4.09-8.64,1.36-11.96,1.04-2.52-.24-3.98-4.3-8.09-4.97-4.54-.74-8.46,1.25-11.85.93-3.51-.33-6.21-3.92-11.08-4.08-4.44-.15-7.71,2.46-12,2.15-4.62-.33-7.76-5.09-12.49-1.54-2.07,1.56-3.21,5.56-5.73,6.27-.74.21-8.88,1.48-9.25,1.19-.17-.13-.52-2.75-1.57-3.95-5.38-6.18-11.83,6.06-16.42,7.51-4.33,1.37-9.88-.51-14.44,1.53M792.92,330.78c9.32,11.06,5.92,14.25,7.56,26.44,1.45,10.75,11.71,9.87,12.91,19.58-16.85.1-17.69-13.59-25.58-23.91-5.43-7.11-14.33-10.94-19.41-17.59-3.91-5.12-6.2-12.65-11-17.49,9.56,3.31,29.13,5.37,35.52,12.97Z"/>
    <path d="M193.99,224.24c-.81-5.29-4.69-11.8-8.98-15l5.13,11.36,3.85,3.64Z"/>
    <path d="M0,338.24v-2c8.03-5.75,16.99-10.5,24.47-17.03,18.16-15.84,26.02-38.14,37.35-58.65,1.08-1.96,3.01-6.17,5.18-6.82-12.08,24.26-22.22,50.61-43.54,68.46-7.23,6.05-15.89,10.47-23.47,16.03Z"/>
    <path d="M1254,212.24l-6.01-8.49,2,.5c-.71-5.55-2.61-8.8,4.01-11.01v19Z"/>
    <path d="M0,318.24v-2c10.89-2.29,16.74-12.22,23.49-20.01.51-.59,2.64-3.36,3.52-2.48-6.44,9.92-15.1,21.36-27.01,24.49Z"/>
    <path d="M1254,214.24v2c-4.6-2.16-9.83-4.44-12.01-9.49l12.01,7.49Z"/>
    <path class="cls-1" d="M442.98,447.76c1.74.79,5.4,5.78,7.54,7.46,3.44,2.69,7.66,3.87,10.48,7.01-7.88.17-14.66-11.44-19.3-13.27"/>
    <path d="M367,281.25c-2.88,6.19-15.11,3.65-20.45,1.94-7.48-2.39-20.09-11.79-26.52-13.48-4.72-1.24-9.7.09-14.45-.55-4.3-.58-14.63-6.79-18.53-9.47-2.61-1.8-5.04-6.06-8-6.99-7.04-2.21-15.91,2.82-16.97,10.14-3.38,23.33-6.44,19.34-16.51,37.49-7.03,12.67-3.35,13.97-3.51,26.43-.08,6.3-4.08,15.2-7.85,20.22-1.11,1.48-1.91,3.62-4.23,3.26,5.97-7.63,10.28-15.46,10.05-25.52-.09-3.96-1.43-7.43-1.09-12.02,1.08-14.24,17.87-25.71,20.8-40.19,1.11-5.48-.37-12.17,3.59-16.91,5.45-6.53,12.93-8.66,20.14-3.35,4.69,3.46,13.83,11.86,19.46,13.54,5.14,1.53,11.61-.48,17.07.93,11.93,3.06,26.08,17.7,40.49,17.04,2.87-.13,3.9-2.39,6.47-2.5Z"/>
    <path d="M542,309.24c-10.23,11.29-24.75-11.9-25.89-21.61-.43-3.65.59-8.51-.33-11.67-.73-2.52-6.86-7.96-8.6-11.4-4.36-8.61-2.96-22.62,4.52-29.16,7.33-2.48,13.17,13.16,13.36,18.34.16,4.16-1.69,7.62-.85,11.78.79,3.89,5.39,7.54,6.32,10.69,1.16,3.92-.37,7.85,1.21,11.79,1.45,3.61,13.83,16.49,11.8,20.25-.31.59-1.28.69-1.56,1.01,2.96-3.25-12.14-17.5-12.79-19.71-.89-3.01.26-7.12-.44-10.56-.88-4.38-5.92-7.36-6.7-12.29-.96-6.05,1.5-10.5-.35-16.65-.66-2.2-4.31-9.4-5.63-11.17-2.85-3.83-7.21,6.2-7.64,8.34-1.34,6.6-.89,12.72,2.72,18.39,1.88,2.95,6.33,6.09,7.38,9.62s0,7.08.47,10.53c1.5,11.18,9.21,27.75,22.98,23.52Z"/>
    <path d="M714.99,426.25c-.01,2.16-3.75.62-4.73.22-4.41-1.84-7.46-5.04-8.18-9.82-3.56-23.54-9.68-39.82-28.07-55.93-3.69-3.24-9.33-5.7-12.55-9.45-3.05-3.56-3.53-8.25-6.41-11.59-3.04-3.54-9.89-5.87-13.98-9.02-8.61-6.66-14.12-16.35-19.26-25.74-2.43-4.44-4.64-9.11-6.82-13.67,10.62,11.1,14.65,28.24,27.66,37.83,4.08,3.01,9.95,4.58,13.36,7.64,3.85,3.46,4.03,8.6,7.44,12.56,4.18,4.86,13.63,9.54,18.57,14.43,11.22,11.09,18.31,29.11,21.73,44.27,1.82,8.09-1.44,16.95,11.23,18.28Z"/>
    <path d="M633.99,277.24l-24.98-10.52c-1.15-.37-2.71-.95-3.84-.29-1.89,1.1-15,35.07-19.35,39.15-3.83,5.27-10.39,8.69-14.82,13.18-7.9,7.99-14.26,19.24-22,27.49.46-2.32,2.29-4.89,3.58-6.91,4.15-6.53,12.38-17.3,17.76-22.74,3.76-3.8,9.93-7.08,13.09-11.41,7.9-10.84,12.31-28.57,19.98-40.01,4.89-3.19,8.51,1.61,12.9,3.25,5.02,1.88,10.44,2.36,14.67,5.82-2.05-3.59-1.39-7.78-2.43-11.06-.64-2.02-3.03-3.44-3.9-6.1-.95-2.87-.95-6.78-1.65-9.84,3.04,1.86,2.33,6.63,3.78,9.71.9,1.91,3.14,3.23,3.77,5.23,1.49,4.66,1.25,10.37,3.44,15.05Z"/>
    <path d="M252.87,255.37c.98.61,2.69,9.07,2.12,10.87l-4.98-9c1,11.71-10.72,15.63-18.02,22.49-5.11,4.8-9.8,11.21-14.49,16.51l-11.49,9c8.36-7.51,15.17-17.85,22.97-25.52,4.55-4.48,14.27-10.34,17.74-14.74.63-.8,2.11-5.58,2-6.28-.2-1.27-4.29-2.39-5.73-3.92-3.23-3.42-2.67-9.81-7.62-12.4s-7.18,2.08-12.39.45c-3.95-1.24-4.38-6.59-8.46-7.61-5.35-.02-11.83,25.46-16.49,29.04,2.31-5.86,9.32-30.15,15.55-31.03,5.88-.84,7.04,6.95,10.14,7.88,4.03,1.22,6.68-2.87,12.01-1.09,7.15,2.38,5.71,11.47,9.71,14.32,2.63,1.87,6.11.23,7.44,1.06Z"/>
    <path d="M608.99,292.25c-.32,18.18,7.06,35.25,10,52.99-1.85,1.66-9.19-6.41-10.43-8.06-7.03-9.39-8.47-19.44-10.34-30.68-.32-1.93.03-1.2,1.77-1.26,2.12,13.23,5.11,28.12,16,37-1.97-14.96-10.92-33.46-8.99-48.52.19-1.46.75-3.1,2-1.48Z"/>
    <path d="M179,257.25c.25,1.36-1.79,1.52-2.75,1.72-2.81.6-5.61.57-8.69,1.32-4.09,1.01-5.95,3.79-10.99,2.91s-6.07-6.31-8.58-7.46c-3.12-1.42-7.27.38-10.75-1.25-2.35-1.09-3.75-5.72-5.88-6.11-1-.18-6.96,2.81-9.9,2.88-8.52.19-22.7-4.76-29.45-10.03,10.69,2.79,21.05,8.13,32.42,6.91,2.6-.28,5.16-2.49,7.85-1.77s4.33,5.52,5.73,6.39c1.9,1.18,4.1-.44,6.24-.3,7.9.51,7.2,7.84,13.33,8.72s14.37-5.5,21.42-3.95Z"/>
    <path d="M663.98,279.25c5.14,6.23,7.49,16.96,12.36,22.65,1.68,1.97,6.46,4.68,8.3,6.69,11.51,12.56,20.28,24.15,36.39,32.11l7.95,10.54c-9.03-11.26-23.68-16.33-33.48-26-4.4-4.34-8.21-10.93-12.46-15.54-2.76-3-7.54-5.32-10.06-8.94-4.1-5.89-5.26-15.41-10.98-21.02l1.97-.48Z"/>
    <path d="M577,288.25c.37,2.98-3.39,1.97-5.96,3.54-7.86,4.82-12.42,18.05-17.58,25.42l-10.45,32.04c1.1-13.01,5.85-27.1,11.82-38.67,4.43-8.6,11.5-21.76,22.17-22.32Z"/>
    <path d="M423.99,212.25c-3.79,27.13-29.85,43.96-55.99,44.98l22.98-6.51c9.95-4.06,17.81-10.22,23.83-19.17,3.14-4.67,8.58-13.45,7.21-18.83l1.97-.48Z"/>
    <path d="M378.5,216.24c.25,0,1.33-1.9,1.51-.49v1.47c-13.76,2.43-26.48-1.05-40,4.52-4.17,1.72-7.23,5.05-11.5,6.5-1.21-.78,1.65-2.45,2.17-2.83,2.62-1.94,6.62-4.16,9.64-5.36,2.38-.94,11.26-3.82,13.18-3.82,8.31,0,16.71.28,25,0Z"/>
    <path d="M699.99,315.24c-8.4-10.2-16.92-20.84-26.98-29.51-1.96-1.69-4.71-2.56-6-4.48,1.69-.23,2.92.35,4.35,1.13,3.98,2.17,15.28,13.46,18.67,17.33,3.63,4.15,8.06,10.38,9.97,15.52Z"/>
    <path d="M416,218.25c-10.72,13.4-29.37,12.91-39.99,26.99-.44-1.88,1.04-2.38,1.99-3.5,8.62-10.26,17.39-10.04,27.7-16.3,3.55-2.16,6.42-5.86,10.31-7.18Z"/>
    <path d="M740.99,430.24c-6.61-5.1-6.6-15.5-11.55-21.94-2.38-3.1-5.36-3.21-7.44-6.05,3.66.5,7.29,3.15,9.43,6.06l9.56,21.93Z"/>
    <path d="M65,333.23c-7.96-3.39-11.93-11.47-10.99-19.99l3.43,11.06,7.56,8.93Z"/>
    <path d="M831,269.24c-2.38,2.3-14.31-10.28-17.99-11,3.17,8.52,2.41,16.81,3.01,25.48.2,2.81,1.31,5.51,1.77,8.25.36,2.12-.59,1.18-1.78,1.27-3.49-14.79-1.68-30.59-7-45,3.38,1.62,3.08,6.69,5.44,9.05,2.79,2.78,10.95,6.12,14.05,9.95.02-2.64.69-8.1.42-10.42-.22-1.86-5.83-15.34-7.05-17.95-3.01-6.42-9.51-11.46-7.87-19.62,2.77,2.16,2.28,6.32,3.82,9.67s4.43,5.67,6.06,8.94c4.56,9.17,8.16,21.13,7.11,31.38Z"/>
    <path d="M1171.01,261.24c2.99-10.15,16.1-14.39,22.01-21.48,3.19-3.83,6.71-12.65,10.17-17.83,1.28-1.91,17.79-24.81,18.81-23.68l-20.8,30.69c-4.29,16.39-20.94,19.78-30.18,32.31Z"/>
    <path d="M811.99,292.24c-2.33-1.55-4.13-4.87-5.05-7.44-1.85-5.18-6.87-23.11-7.01-28.06-.23-8.57,2.81-24.26,7.57-31.5-1.04,9.82-5.44,21.65-5.29,31.49.08,5.24,4.58,20.68,6.27,26.52.95,3.27,2.9,5.76,3.51,8.98Z"/>
    <path d="M1155,212.25l-35.97,48.52-14.03,13.46c4.88-7.57,12.22-13.52,17.97-20.52,9.21-11.21,16.2-25.33,25.05-35.95.79-.95,5.85-6.6,6.98-5.51Z"/>
    <path d="M1228.5,235.26c4.04,2.32,3.83,8.32,6.97,11.01s6.79.87,9.55,4.45c.7.9,3.99,6.99,1.46,7.52s-4.27-2.1-6.24-2.74c-1.61-.52-3.56-.14-5.29-.71-5.24-1.73-12.89-15.48-6.45-19.53ZM1244.99,256.24c-.26-7.22-7.37-5.16-11.01-8.48l-5.97-10.52c-.86,12.37,7.21,15.59,16.98,18.99Z"/>
    <path d="M767,303.23c3.15-4.13,7.74-6.33,10.83-10.66,4.61-6.47,4.64-13.38,7.99-20.01.86-1.7,11.37-15.19,12.17-14.32-1.77,5.45-7.69,9.41-10.19,14.3-5.82,11.38-5.3,25.02-20.8,30.69Z"/>
    <path d="M1238.99,226.24l-4.97-.51,4.05,8.89c-3.59,3.47-8.27.28-8.07-4.37l5.98,3.99c1.35-1.35-6.15-7.8-3.58-11.08l3.58-1.41-6.99-2.5-.99,5.99c-4.98-13.32,11-8.34,10.98,1.01Z"/>
    <path d="M1018,234.25l-32.99,34.99c1.74-4.8,7.14-8.15,10.5-11.99,6.25-7.12,11.54-14.74,18.98-21.02,1.12-.95,1.63-2.42,3.5-1.99Z"/>
    <path d="M1110.99,236.23c-2.46-1.22.93-4.6-1.48-6.95-3.65-3.56-9.36.4-12.29-6.75s.73-12.51,1.8-19.28c1.8-.24.91,2.18.74,3.24-.79,4.94-4.74,16.05,1.49,19.01,5.47,2.59,13.46-.13,9.74,10.74Z"/>
    <path d="M856,333.23c-9.41-2.82-11.7-8.04-13.99-16.99,3.48,2.34,3.21,7.21,5.98,10.51,2.43,2.9,6.25,3.12,8.01,6.48Z"/>
    <path d="M759,346.23c-2.07,1.87-11.39-12.27-10.99-14.99l10.99,14.99Z"/>
  </g>
</svg>