<?xml version="1.0" encoding="UTF-8"?>
<svg xmlns="http://www.w3.org/2000/svg" viewBox="0 0 1258 461.58"  preserveAspectRatio="xMidYMin slice" style="overflow: visible">
  <defs>
    <style>
      .cls-1 {
        stroke: #000;
        stroke-miterlimit: 10;
        stroke-width: .25px;
      }

      .cls-2 {
        opacity: .02;
      }

      .cls-3 {
        opacity: .7;
      }
    </style>
  </defs>
  <g id="_图层_1" data-name="图层 1">
    <g class="cls-3">
      <path d="M1032.07,156.91c4.64-6.23-7.95-19.22-12.07-23.56,1.8-1.68,11.67,11.07,12.51,12.98M992.76,164.09c-3.22-7.37,3.86-7.8,4.28-9.46,1.06-4.28-3.82-13.74.47-18.29,1.32,1.79-.52,4.33-.42,6.4.24,4.74,4.7,9.27,1.39,13.57-2.43,3.15-6.25,1.79-3.34,7.38M657.48,203.36c-3.73-6.73-5.21-13.96-8.67-20.33-4.13-7.59-12.99-15.96-18.44-23.56-4.27-5.95-14.82-20.66-17.42-26.58-.69-1.58-1.34-2.67-.93-4.55l27.02,37.47c12.09,8.71,13.6,20.86,19.45,32.55M1068.95,169.29c-.62-4.09,2.04-8.63-.15-12.26-2.06-3.42-6.06-2.06-8.53-3.99-1.07-.84-12.95-20.23-14.47-23.02-5.78-10.57-5.71-18.16-8.03-28.97-1.56-7.25-20.73-27.95-26.19-35.81-15.03-21.62-21.16-37.92-42.59-55.91-.01,7.26-2.05,15.17-.94,22.44.42,2.77,2.55,6.34,3.28,9.72,1.82,8.46,2.44,17.32,7.1,24.9l11.56,5.93c-18.51-1.32-17.15-16.44-20.46-30.02-3.55-14.53-5.56-15.06-2.5-31.46.31-1.64-.66-1.72,1.97-1.51-2.74-2.3-4.98-6.3-9.71-4.26-2.26.97-16.81,12.46-19.3,14.76-9.11,8.41-18.53,28.99-33.5,19.57l-4.96,4.93-7.85-4.85c-5.53,5.54-9.86,2.94-16.09,3.94-2.41.38-12.96,2.71-14.53,3.47-3.3,1.59-7.39,8.68-10.57,11.43-6.03,5.2-15.6,8.01-21.5,13.5-4.39,4.08-3.78,9.23-10.98,7.53,5.41,4.65,1.47,11.07,2.64,15.77,1.89,7.6,13.99,15.35,10.35,26.22-3.07-1.8-1.7-6.14-2.77-9.72-1.71-5.75-8.52-11.42-9.8-16.27-1.09-4.1,2.27-11.97-1.94-16.99-1.52-1.81-13.33-5.61-15.47-10.02,2.9,7.07-.16,13.25,2.25,20.24.83,2.41,10.72,21.54,11.78,22.22,2.16,1.36,5.13,1.06,7.48,2.52,1.97,1.22,4.56,5.25,5.48,7.52-3.05-.48-3.65-4.05-6.28-5.73-4.85-3.09-9.36-1.2-12.23-8.75-3.74,8.08-13.46,16.23-8.74,25.72,2.42,4.88,5.68.27,8.96-.52,3.46-.83,7.25.24,10.8-2.21l1.44.45c4.99,8.37,20.35,14.3,16.1,25.11-6.17-.23-4.33,1.75-7.73,5.27-5.21-.69-11.03,1.33-15.83,1.24-3.43-.06-7.15-2.23-9.96-2.04-3.28.22-10.12,5.29-14.55,4.97-1.5,2.16,9.84,14.88,11.82,17.67,4.9,6.89,4.99,13.74,15.76,15.24,4.92.68,30.36-1.45,33.82-3.84,4.82-3.33-8.92-6.27-11.41-5.08-.18-1.73,3.44-1.09,4.53-1.02,9.6.59,13.62,6.35,2.71,8.78-9.83,2.2-26.88,4.71-35.92.43-7.06-3.34-6.24-6.78-9.9-12.1-4.2-6.11-8.96-11.74-12.96-17.99-.28-1.29.53-2.87,1.58-3.55,1.68-1.08,15.11-4.67,17.34-4.45,2.66.25,5.49,1.95,8.14,1.93s4.75-1.76,7.1-1.99c5.83-.56,7.07,3.58,9.33-5.61l5.06.07c.69-7.55-5.66-9.39-9.55-13.45-1.73-1.81-4.19-7.47-6.15-7.96-4.07,2.33-7.73,1.32-11.6,2.14-2.9.61-5.24,4.08-8.72,2.32-2-1.01-3.68-8.09-3.75-10.32-.14-4.87,7.63-17.01,11.82-19.79-1.92-8.08-8.97-13.95-9.95-22.05-1.42-11.69-1.11-18.77-9.11-28.9l-6.59,12.42c-4.52,9.36-12.5,16.14-18.41,23.59-2.2,2.77-2.42,6.39-5.67,8.34-1.76,1.05-1.82,1.61-3.32-.34,4.13-2.26,5.01-7.35,8-11,6.63-8.1,11.9-14.19,17.17-23.83,1.5-2.74,10.01-17.28,4.31-18.67l-13.47,15.51c-18.68,8.03-23.51,30.72-40.66,40.34-12.49,7.01-10.38-5.62-16.6-10.21-3.24-2.39-9.18-3.76-13.11-5.79-4.64-2.4-8.66-5.99-13.63-7.86,1.82,5.34,10.02,22.1,14.98,23.61,2.33.71,5.3-2.06,5,.87-4.62,4.35-9.26-.74-12.97-3.48-4.21,9.99-14.51,15.6-22.93,21.58-1.76,1.25-3.72,4.26-5.1,4.9-3.37,1.56-6.14-.58-9.43-.52-5.36.09-13.37,3.1-13.13,9.55.04,1.19,10.58,18.08,12.17,20.41,7.77,11.42,23.5,20.42,25.3,34.7.48,3.77-.54,7.73.57,11.43s6.69,8.82,8.54,12.46c-2.58,1.07-6.21-4.69-7.41-6.59-6.51-10.32-1.91-15.8-6.38-24.62s-14.71-13.98-20.62-21.38c-3.49-4.37-12.55-18.16-14.98-23.02-2.55-5.11-1.22-7.87,1-12.79,3.43-7.56,11.61-20.39,16.37-27.63,4.1-6.25,17.94-24.56,25.52-24.54,2.74,0,29.22,13.29,32.43,15.63,4.87,3.54,5.26,8.22,9.4,11.33,14.2-6.06,19.84-23.33,29.63-32.43,3.56-3.31,9.16-5.66,13.05-8.95,3.48-2.94,14.3-17.53,16.49-17.55,3.44-.02,8.4,13.56,10.33,16.71,5.04,8.19,15.04,16.65,24.48,19.21,2.9-2.01,3.78-5.2,6.36-7.72,5.5-5.36,14.73-8.24,20.81-13.19,6.86-5.58,8.74-14,19.5-13.5l22.28-17.73c3.8-2.47,11.25,4.18,13.76,7.01,4.26,4.8,2.35,9.79,12.04,6.79,3.95-1.22,18.86-19.66,23.93-24.07,5.98-5.2,16.74-14.76,24.73-11.7,6.41,2.45,25.98,23.96,30.69,30.3,7.38,9.92,13.09,22.12,20.37,32.63,5.09,7.36,22.61,27.11,24,34s-1.2,14.35,5.28,19.72c7.01,5.8,12.46,6.06,18.76,15.24,2.57,3.74,3.57,8.73,5.18,11.32-.2-.31-1.25-.79-1.83-1.63-2.78-4.04-3.76-9.31-8.67-12.36-.73,2.5,2.19,5.83,3.27,8.73.8,2.17,3.09,11.53,3.45,12.04.68.96,4.69.97,5.58,3.91,1.86,6.13-4.61,13.89,3.27,16.81,3.36,1.25,6.63-3.23,7.94-5.98-5.86-2.8-4.71-8.52-7.45-13.57-1.39-2.56-3.72-5.12-5.55-7.95.68,1.09,4.31,3.38,5.83,5.67,1.8,2.71,4.6,12.44,5.15,12.85.44.33,9.82,3.51,10.44,3.47,1.45-.09,10.36-4.56,10.57-5.55-2.49-3.16-3.18-7.47-5.14-10.8-1.71-2.91-5.46-8.69-7.42-11.58-2.89-4.28-7.29-9.97-10.79-13.71-1.17-1.25-5.77-2.79-4.16-5.35,10.14,6.52,14.19,15.28,20.04,24.96.91,1.51,2.94,2.5,3.89,4.11,1.72,2.92,2.37,7.77,4.66,10.87,10.77-6.92,16.28,1.23,25.65,2.82,3.22.55,6.41-.15,9.53.47,6.81,1.36,12.33,12.51,15.26,12.81,4.42-.59,7.74-3.83,12.02-4.98,5.46-1.47,9.63-.51,14.7-1.3,7.25-1.13,16.18-6.51,23.74-7.77-3.05-4.15-6.32-9.92-10.5-12.98-5.25-3.85-11.8-3.61-16.83-7.17-3.31-2.35-3.82-5.24-7.62-7.38-7.45-4.21-36.34-14.31-44.72-15.07-6.26-.57-7.9,1.32-15.32-1.89-7.96-3.46-13.68-12.96-18.04-14.97-3.24-1.49-5.77.6-9,.09-2.09-.33-6.98-2.92-9.01-4.12-1.29-.76-2.53.18-1.97-2.49.47-.43,9.57,4.59,11.76,4.83s3.82-.84,5.66-.76c8.26.36,14.5,14.71,26.07,15.94,7.13.75,12.55.14,20.14,1.86,5.28,1.19,36.24,13.08,39.27,15.73,2.04,1.79,2.85,4.54,5.75,6.25,4.51,2.66,10.39,2.32,15.28,5.72,3.46,2.4,10.8,13.92,12.71,14.28,2.33.44,12.79-10.53,16.02-12.67,12.65-8.38,21.12-4.7,34.33-.17v4c-8.05-2.8-16.26-6.63-25.07-4.57-7.98,1.87-14.57,12.32-21.59,16.41-5.18,3.02-15.08,4.62-18.89,7.11-5.43,3.55-11.5,33.88-20.96,39.04l8.68-16.32,7.82-20.67c-6.35,1.39-14.1.84-20.26,2.23-5.27,1.19-10.34,5.93-15.82,5.31-4.12-.47-7.44-10.58-14.18-12.77-3.98-1.29-7.16-.36-10.99-1.01-4.58-.78-11.44-5.55-15.26-5.31-3.38.21-11.69,7.89-16.45,9.08-3.4.85-7.34-.23-10.02.98-3.85,1.74-2.75,8.8-11.07,6.04-1.83-.61-2.81-2.54-3.97-3.02M901.89,41.25c6.42-6.87-2.25-9.58-7.37-13.93l-18.51,12.02c-.27,1.65,1.35.92,2.47.99,8.19.48,7.67-1.22,13.27-2.79,5.01-1.41,5.62,3.49,10.14,3.71ZM686.99,76.34c-12.33,5.13-18.7,17.23-25.79,27.69l-10.18,19.3c3.71-3.52,13.79-.63,15.95-1.49,1.2-.48,15.11-11.3,17.06-13,2.18-1.9,12.17-11.63,11.83-13.83l-8.85-18.68ZM1064.99,153.34c.34-1.75-.31-3.12-.79-4.7-1.38-4.6-8.21-21.41-11.26-23.74-2.57-1.96-6.48-2.81-8.93-5.56-.7.86,3.03,8.21,3.82,9.67,2.95,5.42,8.23,14.31,11.76,19.24,1.56,2.18,2.44,4.3,5.4,5.09Z"/>
      <path d="M0,195.59c6.45,3.92,9,13.08,16.96,14.58,6.42,1.21,14.15-3.6,21.11-3.01,3.78-1.23,14.39-19.37,18.54-23.46s9.71-9.33,13.85-13.15c12.12-11.18,16.61,16.13,24.83,13.9l28.21-27.86c13.58-1.84,21.21-10.14,29.49-20.51,3.61-4.52,6.58-13.48,12.58-14.42,3.68-.58,7.95.29,11.83-.17,4.97-.58,10.14-3.56,15.13-3.89,13.38-.89,17.85,6.72,28.27,11.71,7.48,3.58,15.78,4.99,23.23,8.77,12.99,6.59,13.34,14.07,30.52,12.56,10.07-.88,10.45-13.79,16.37-18.62,2.09-1.71,4.66-1.48,7.05-2.95,19.81-12.2,35.41-54.25,55.72-65.27,10.31-5.6,10.02,1.51,14.88,7.75,7.4,9.5,17.97,21.93,12.63,34.76-3.75,9.02-12.56,11.88-12.27,23.82.21,8.73,5.01,7.42,5.91,10.14.79,2.4-.2,5.51.95,9.06s5.4,6.81,9.2,5.87c9.18-2.25,6.62-9.89,10.13-16.97s7.6-8.81,15.32-7.56c2.51.41,4.25,2.4,6.57,2.43-4.39-7.99-11.06-14.35-16.24-21.76-2.59-3.72-3.92-8.28-6.34-11.66-3.13-4.37-7.88-6.37-11.44-10.05,13.29.38,15.55,12.26,21.57,20.92,3.52,5.06,8.48,9.56,12.25,14.75,1.93,2.66,8.87,15.21,10.19,15.86,2.15,1.06,6.91-1.07,11.06-.11,5.55,1.28,11.53,8.89,17.57,9.25,4.11.25,7.5-3.08,10.92-3.63,2.89-.46,11.97-.47,14.73.15,5.2,1.17,8.52,10.02,13.35,12.64,2.89.57,6.3-5.44,9.31-6.4,4.53-1.45,8.25,1.67,13.11.11,3.15-1.02,7.63-7.31,11.2-8.8s8.22-.74,12.11-2.89c9.79-5.42,9.93-25.84,20.23-26.85,6.17-.6,9.4,5.24,13.11,5.81,5.53.84,7.77-3.68,12.78,4.94,7.89-2.81,13.66-10.63,22.81-8.55,3.03.69,5.96,4.54,8.66,5.34,3.27.96,5.98-.17,9.42,1.58s6.95,7.4,7.64,11.36c-3.91-.98-4.4-7.11-8.26-8.74-2.96-1.25-6.29-.47-9.59-1.41s-7.39-5.08-10.73-5.3c-6.05-.4-12.87,8.05-19.44,7.98-1.38,1.88,9.17,15.92,9.79,18.7.86,3.82-.16,8.59.32,12.68.59,4.98,11.62,26.83,2.37,27.61-3.89.33-9.13-1.72-14.74-.76-6.23,1.06-12.9,7.06-19.69,8.31-22.19,4.1-29-12.59-29.04-31.54l3.71,14.78c4.17,12.11,11.44,17.04,24.54,14.98,6.93-1.09,13.49-7.04,19.68-8.32s10.56.63,16.13.13c4.5-3.22-4.36-19.39-4.98-24.16-.56-4.28.71-9.77-.33-13.67-.29-1.11-9.85-18.49-10.93-20.07-5.3-7.79-5.29-2.48-10.07-2.85-4.37-.33-10.01-7.03-13.72-5.36-3.97,1.79-8.44,17.96-11.99,22.03,4.53,10.84,7.73,21.98,9.95,33.51-4.09-3.21-3.8-10.12-5.53-14.96-.89-2.49-5.59-14.52-7.11-14.96-2.75-.34-4.64,2.14-7.07,2.69-3.2.73-6.08-.23-9.55,1.45-3.69,1.78-5.82,7.03-10.7,8.3-3.38.88-10.29-.21-11.83.68-.81.48-3.6,7.14-4.76,8.73-4.83,6.57-11.59,7.92-17.57,12.43-8.58,6.48-13.24,25.25-18.35,35.65-3.86,7.85-20.43,37.33-25.96,42.04-3.81,3.25-8.56,2.94-12.51,5.49-3.51,2.26-7.2,8.5-10.67,10.33-2.92,1.54-7.1,1.62-10.75,3.25-6.5,2.9-16.18,12.55-23.2,12.81-2.76.1-4.8-1.14-8.66-.68-13.63,1.6-16.51,14.75-24.27,23.74-1.65-.98.47-2.23.92-3.09,2.86-5.51,9.27-16.42,14.26-19.74,8.31-5.55,14.23-1.38,22.07-3.93,5.11-1.67,11.04-8.23,16.23-10.77,3.91-1.91,8.77-2.22,11.96-4.04s6.69-7.54,10.14-9.86c3.68-2.48,6.97-2.19,10.21-3.79,5.28-2.6,23.7-34.68,27.24-41.76,5.99-11.98,9.13-25.95,18.38-35.66-6.2-8.51-3.02-17.04-.89-26.35,1.77-.18,1.07,3.39.97,4.47-.61,6.81-4.83,14.68,1.51,20.43,5.95-5.71,16.52-8.27,18.49-16.91-10.83,7.43-13.03-3.5-18.28-7.7-1.43-1.15-10.73-2.19-12.96-2.06-5.96.35-9.31,5.09-17.03,3.53-5.21-1.06-9.68-7.13-13.68-8.32-4.37-1.3-10.47.65-14.03-.97-3.08-1.4-4.7-7.67-12.74-10.26-13.19-4.25-14.74,4.08-17.99,14.56-4.56,14.7-5.74,30.03-7.76,45.24l-3.51,11.97,7.99-50.99c-1.24-.94-7.89,4.61-13.53.02-4.79-3.9-2.37-9.57-3.63-13.38-.64-1.93-5.17-2.46-6.41-7.59-3.97-16.49,15.41-23.42,11.88-37.89-1.16-4.75-5.34-9.25-6.32-14.18-1.38.11-1.59,1.46-2.04,2.45-1.69,3.71-4.04,8.87-5.43,12.57-1.92,5.11-4.66,18.92-7.04,21.96-2.67,3.41-4.7,1.86-7.99.42l-1.8.51-6.68,13.64c-2.67,1.69-6.17-2.48-9.07.9-2.28,2.65-6.25,18.21-8.18,22.82-7.14,17.07-14.3,3.52-23.32,8.68-4.93,2.82-9.94,16.68-14.04,20.96-3.26,3.4-8.74,4.56-12.43,7.57-5.32,4.35-8.56,14.8-14.25,16.75-3.15,1.08-8.92,1.22-12.16.71-7.8-1.23-8.22-7.52-21.09-5.96-5.03.61-5.24,3.6-9.03,5.01-4.99,1.85-6.97-1.51-10.87-.99-2.57.34-4.97,4-6.91,3.83-4.75-.41-13.55-15.48-15.66-6.85,4.83.47,16.14,20.01,7.54,19.05-5.05-.56-7.36-13.06-10.47-16.65l1.92-2.38c-6.82-2.06-10.58-9.22-16.5-13.01-1.68,1.07.41,2.19,1.02,2.98,2.05,2.67,13.82,15.89,14.09,16.96.45,1.78-2.85,4.1-4.84,3.9-5.61-.57-12.86-9.67-17.84-13.28-5.13-3.71-21.76-14.08-27.21-15.79-9.16-2.88-5.85,4.47-10.74,6.7-3.07,1.4-5.95.14-8.98-.48l.68,6.81,8.82,22.18c-6.6-9.61-13.07-19.85-12.94-32.06-1.12-1.64-8.11-.74-10.83-1.17-10.92-1.73-11.48-7.66-17.72-14.28-8.23-8.76-7.06-1.67-13,4.05-2.42,2.32-6.18,4.02-8.56,6.44-5.59,5.68-10.16,16.68-16.44,21.56-3.86,3.01-8.27,2.76-11.45,5.55-10.67,9.34-13.92,24.02-21.14,33.86-2.63,3.59-7.47,6.46-10.44,10.06v-4c10-5.67,10.95-14.49,15.83-23.67,3.18-5.98,7.5-12.57,12.17-17.32-13.35,4.09-20.3-2.39-28-12.01v-5ZM238,203.58c6.15,1.9,8.29,6.24,15.44,6.04,12.62-.35,10.82-9.23,18.03-16.05,4.03-3.81,7.65-4.01,11.48-6.52,7.79-5.11,12.36-24.2,22.58-24.49,4.94-.14,10.06,3.98,14.51-.43,4.81-4.77,7.64-26.13,12.45-30.55,3.13-2.88,6.11,1.26,7.53.58,4.89-2.35,4.27-21.06,15.49-12.67,6.11-12.43,8.14-26.86,14.3-39.6l-8.79-13.84c-4.06-2.58-10.8,5.67-13.53,8.53-14.02,14.65-23.09,33.38-36.97,48.03-6.12,6.45-12.14,8.41-16.54,12.46-2.67,2.45-7.31,11.97-10.16,15.84-9.68,13.17-22.43,32.12-34.34,42.66-1.68,1.49-12.75,8.28-11.47,10.02ZM236,138.6c-16.29-2.02-28.18-18.72-44.39-16.9-4.96.56-10.04,3.48-15.11,3.88-6.89.54-9.49-3.16-14.32,3.68-7.67,10.84-11.64,27.31-21.67,37.33-1.48-.76.21-2.41.71-3.29,2.12-3.75,4.91-7.22,6.97-11.03l4.33-9.67c-4.48,3.33-10.09,11.96-14.93,14.07-3.57,1.57-7.66.81-11.11,2.89-2.82,1.7-23.52,21.81-25.98,25.02-.77,1-1.94,1.27-1.49,3,3.15.39,7.34-.66,10.29.21,3.13.93,3.17,5.81,9.15,4.8,3.8-.64,4.58-5.77,7.62-7.44,14.8-8.1,23.89,9.29,37.93,6.44-1.19,2.97-5.77,2.17-8.26,1.75-7.7-1.29-13.53-9.14-21.73-8.26,8.75,5.55,18.52,10,26.9,16.1,4.41,3.2,12.67,12.67,16.65,13.36,1.46.25,2.87.62,2.44-1.44-6.03-6.09-13.2-12.72-14.99-21.51,2.69-2.53,15.98,11,18.5,12.99,5.21-10.22,12.54,5.66,17.05,6.06,2.78.25,5.36-3.51,8.08-3.77s5.23,2.2,8.39,1.31c2.69-.75,4.37-4.64,7.69-5.39s7.51.5,10.58-.42c1.19-.35,12.94-11.45,14.68-13.32,8.87-9.58,15-21.32,23.02-31.46-16.82,2.78-33.08,1.14-47.01,12.48-2.75,2.24-13.9,13.05-15.44,15.56-1.14,1.86-2.01,3.61-1.48,5.88,8.68,2.51,14.96-7.7,23.74-7.7l9.18,1.77c-4.24.38-9.15-.61-13.27.24-5.93,1.22-13.26,10.8-20.58,6.62l-.15-5.85-5.49,4.99c-.74.16-.68-1.04-.49-1.48,1.13-2.52,8.22-7.3,10.39-9.62,2.97-3.16,6.04-8.13,9.06-10.94,13.76-12.81,32.72-11.56,50.07-13.93,1.5-.2,3.08-.13,3.47-2.02-15.63,5.4-23.84-10.6-37.35-14.09-2.54,4.25-7.43,6.08-11.13,9.1-5.06,4.13-9.22,11.94-16.93,10.96-4.09-.52-6.96-4.84-12.04-3.99-3.79.63-5.61,7.27-9.55,6.52,9.13-13.71,15.09-3.46,26.95-5.05l21.04-18.44ZM193.99,223.59c-.81-5.29-4.69-11.8-8.98-15l5.13,11.36,3.85,3.64Z"/>
      <path class="cls-2" d="M369.72,369.87c1.23,1.26,2.34,5.58,3.84,7.66,3.65,5.07,10.48,14.79,15.75,17.25,2,.94,4.38.9,6.23,1.77,10.81,5.06,26.43,25.32,31.98,36.02.78,1.51,3.01,4.42,1.99,6.01-7.92-13.15-17.49-28.7-30.02-37.98-1.34-.99-2.64-2.25-4.48-2.01,2.37,3.91,6.96,6.29,9.21,10.28,6.07,10.78,4.21,23.78,16.86,33.14,9.57,7.08,15.79,2.3,21.91,5.09,1.74.79,5.4,5.78,7.54,7.46,3.44,2.69,7.66,3.87,10.48,7.01-7.88.17-14.66-11.44-19.3-13.27-2.31-.91-9.55.46-14.69-1.23-22.11-7.28-17.44-34.71-33.51-47.49-3.33-2.65-8.32-4.38-11.49-7.51-4.7-4.65-10.58-17-14.48-20.52-3.33-3.01-8.38-2.23-11.91-4.09-3.84-2.03-7.17-8.42-10.26-10.74-2.87-2.15-7.92-2.86-11.27-4.23-2.09-4.6,6.84-7.24,4.46-10.95-.46-.72-10.22-4.59-13.03-6.99-1.26-1.08-4.64-3.65-3.03-4.97l2.5,1.99c1.16-7.21-11.18-7.14-12.98-11.51-1.66-4.03,4.74,1.45,5.28,1.73,3.27,1.7,6.68,1.8,8.49,5.51,1.16,2.38.69,5.23,2.67,7.33,3.7,3.92,15.37,2.81,12.39,11.28-.68,1.93-6.33,3.14-3.84,5.16,1.97,1.6,6.17,2.19,8.93,4.07,3.68,2.5,6.98,8.12,10.71,10.29s10.78,2.08,13.08,4.42Z"/>
      <path d="M76,193.6c-2.15,3.61-6.89,1.12-10.74,2.75-12.32,5.21-17.99,28.25-25,37-3.1,3.86-6.95,6.03-10.08,10.92-7.21,11.26-9.42,15.88-18.15,26.85-3.09,3.88-4.39,7.52-6.83,11.17-.87,1.3-1.13,2.74-3.2,2.29,1.97-11.41,10.78-17.4,16.83-25.66,4.32-5.9,6.15-13.26,10.76-19.24,2.52-3.28,6.56-5.92,8.85-9.15,3.15-4.43,4.71-10.72,7.39-15.61,6.36-11.6,15.13-23.98,30.17-21.32Z"/>
      <path d="M90.98,194.6l20.02,29.98c-2.61.64-1.75-.84-2.58-1.88-4.01-5.03-17.96-21.81-19.37-26.67-.53-1.83.55-1.58,1.93-1.43Z"/>
      <path d="M475,152.6l-3.28,15.21-4.71,9.78c2.72-7.4,4.09-14.95,5.96-22.56.42-1.69-.99-2.92,2.02-2.42Z"/>
      <path d="M710.01,115.59c4.27,5.02,5.47,12.43,9.15,18.34,3.55,5.69,9.82,11.64,13.67,17.33s7.76,15.79,11.32,19.68c1.3,1.42,2.73,2.85,4.85,2.64-.91-7.26-3.94-14.04-6.82-20.67-4.93-11.37-13.57-28.5-20.01-38.99-5.6-9.12-15.64-17.16-21.16-26.84,1.46-1.4,3.94,1.11,5.01,1.99,2.83,2.31,16.14,17.37,18.42,20.58,6.07,8.55,25.06,48.99,26.3,58.69.29,2.28.97,4.83-.68,6.81-5.81,4.18-13.99-15.56-16.23-18.9-8.86-13.19-21.01-24-23.81-40.68Z"/>
      <path d="M982.99,155.59c-2.08-.52-.9-5.68-.55-7.05.98-3.83,3.48-5.99,4.76-9.24,1.83-4.67,3.88-18.67,7.29-21.71,4.32-3.85,9.97,3.75,12.56,2.54l3.08-6.41c10.97,1.37,11.85-7.02,3.81-12.56l-18.93-8.56c8,1.71,30.76,8.16,25.47,19.97-1.89,4.21-6.53,2.2-8.52,3.48-1.47.94-1.14,5.69-3.63,6.44-4.73,1.46-9.44-6.07-12.83-2.91s-4.81,16.27-6.98,21.03-7.09,8.2-5.53,14.98Z"/>
      <path class="cls-3" d="M966.99,66.59c-5.01-4.36-18.95-14.67-25.22-13.8-5.47.76-11.87,6.02-17.76,3.79l3.98-2.47-6.49-5.55c-2.87-.02-3.89,4.66-5.5,6.54-6.45,7.54-8.63,7.38-16.38,11.62-2.17,1.19-3.41,4.09-6.36,4.7-4.22.88-6.42-2.53-9.54-1.68l-8.72,8.86c1.15-3.45,6.87-11.25,10.4-11.02,1.59.1,2.92,1.54,4.33,1.83,5.1,1.08,5.07-2.21,8.54-4.02,2.45-1.28,5.18-1.5,7.25-2.75,4.15-2.53,12.72-15.88,15.02-16.09,3.39-.31,7.21,5.63,9.1,8.13,4.42-.54,9.46-3.17,13.86-3.15s5.52,2.94,9.48,3.08c.47-2.8-1.69-4.66-2.54-6.95-.35-.93-1.31-3.26.53-3.03,1.73,2.91,2.58,9.04,4.11,11.39,1.92,2.95,11.49,4.82,11.89,10.6Z"/>
      <path d="M743.99,134.58l-6.73-28.23c.39-9.55,9.09-17.75,15.73-23.76.18,7.51-10.54,13.03-11.75,19.74-2.19,12.07,4.57,21.1,2.75,32.26Z"/>
      <path d="M893.99,156.59c-5.11-5.86-13.34-4.8-19.35-8.14-3.81-2.12-6.27-6.52-9.12-8.88-10.25-8.46-31.64-1.58-36.51-18.98,3.22,2.95,5.37,6.92,9.28,9.21,7.29,4.26,16.48,2.39,24.1,5.9,5.54,2.55,8.77,9.29,13.24,11.76,5.72,3.15,16.43,1.28,18.36,9.13Z"/>
      <path d="M991,100.58c-9.59-2.29-11.24-17.16-21.99-17.98-1.31,1.28,8.22,23.01,10.99,25.5l-1.97.49c-1.97-4.61-13.17-23.22-10.57-27.04,1.88-2.77,8.27,1.68,10.03,3.07,5.76,4.57,7.2,11.8,13.53,15.96Z"/>
      <path d="M768.99,205.59c-1.45.23-1.38-1.76-1.68-2.8-1.49-5.2-.71-9.66-1.55-14.46-1.16-6.67-6.01-12.93-6.75-19.73l8.54,19.95,1.44,17.04Z"/>
      <rect x="712" y="148.59" width="1" height="35"/>
      <path d="M168.01,189.58c-.23-1.85,2.08-.87,3.03-.53,3.5,1.27,17.29,10.69,16.94,3.15-.27-5.91-7.9-11.45-10.84-17.26-3.08-6.11-7.02-26.35-14.62-26.44-2.72-.03-4.03,2.09-6.52,2.07,15.34-13.64,19,13.01,23.13,22.38,2.91,6.61,11.38,12.51,11.54,19.3.3,13.08-17.44-1.59-22.66-2.68Z"/>
    </g>
  </g>
  <g id="_图层_2" data-name="图层 2">
    <g>
      <path class="cls-1" d="M497.16,13.53c.3,1.05,10.21,5.53,11.96,6.48,11,5.95,25.42,13.12,35.42,20.31.47.34,2.71,2.49,2.35,3-2.79,1.19-7.5-.42-10.01.94-1.25.68.1,1.79-.06,2.91-.92-.35-.7-2.81-1.93-1.92l4.07,8.79.42-.85c1.22,2.42,9.17,1.92,9.9,3.44.29.61-.25.91-.25,1.06v12.86l-.64.64h-8.15c-1.38.79-.22,6.01-.64,6.43l-5.3.06-.73,1.02,4.74,64.08-.86-.63c-.34-4.57-.48-9.18-.86-13.72-1.41-16.89-2.59-33.87-4.18-50.72-.05-.55.14-.89.33-1.36l-16.72-3.43c-.3,1.24.44,2.54.43,3.65-.12,23.63,1.77,47.45,2.59,71.15.05,1.5.16,3.76-.02,5.17-.08.63-.33,1.33-.86.63l-2.58-81.02-63.88,1.72,5.15.65c-.68,7.86-1.85,15.72-2.58,23.57-1.44,15.63-1.9,32.1-3.86,47.58-.09.69-.12,3.17-1.28,2.79l6.43-72.24c-.37-1.91-4.03-.66-5.53-1.54,1.6-8.41-7.23-6.21-11.62-10.03v-13.72l.89-.47c2.22,1.46,4.09.65,6.17.67,3.93.03,7.88.01,11.8.02l-3.64.86,9.21-.44c.1-.75-.97-.4-1.49-.42-1.07-.05-2.15.04-3.22,0,1.19-1.42,1.25-8.72.43-9.65-.34-.38-8.12-3.46-9.36-3.93-1.43-.54-8.02-1.4-6.45-3.94.44-.72,16.57-6.95,18.5-7.16.14.1-.25.53-.43.64-2.64,1.75-11.61,4.46-14.7,6.04.29.76,2.54.48,3.23.44,6.95-.38,14.03-1.17,20.98-1.74,15.36-1.26,30.72-2.74,46.09-3.86l-20.81-13.73-35.34,12.88v-2.14s2.14.86,2.14.86l.43-5.78c-.05-.39-.74-.35-1.23-.04-.31.2-.36,5.09-.3,5.48l-1.04-.51.42-6.43c4.82-.02,2.6,3.04,3,5.8.09.6-.25.73.63.62l29.48-11.15c.3-.12.76-.87.76-1.06v-7.29c0-.06.45-1.05.69-1.09.54-.22,1.89.79,1.89,1.09v7.72ZM496.31,5.6h-.86v7.72h.86v-7.72ZM538.75,37.33c-12.31-6.45-24.16-13.94-36.87-19.72l8.87,5.92c8.73,5.91,18.38,9.99,27.79,14.65l.21-.85ZM545.61,42.46c-4.45-3.35-10.17-4.95-15.3-7.21-3.43-1.51-6.9-3.79-10.43-5-4.73-1.62-16.44-.18-22.07.21-2.02.14-4.41.7-6.44.85-15.8,1.2-31.59,2.44-47.37,3.87-.1.75.97.4,1.49.42,11.11.43,23.56-1.74,34.74-2.57,12.43-.93,24.89-1.37,37.3-2.58,3.74.59,6.83,2.9,10.21,4.36,5.94,2.57,11.96,5,17.87,7.64ZM515.6,32.18l-55.45,4.27c-.69.17-.76,4.04-.01,4.25l9.16-.37v9.86h.86v-9.86l9.86-.43v9.22c0,.07.58.68.86.64v-9.86l10.29-.43v9.43h.86v-9.22c.27-.42.59-.55,1.07-.64,2.49-.46,6.51.19,9.22,0v9.43h.86v-9.43l8.81-.88,1.29.43.19,8.17.85-.43c.57.83-.47,5.78-.46,7.08,0,.91.42,1.72.46,2.58.08,1.59-.78,5.24,1.29,5.35v-15.86h-1.72s0-.64,0-.64l1.72-.22v-12.43ZM533.55,39.1l-17.09-6.92.42,2.36,16.09,7.06c1.12.33.58-1.89.57-2.51ZM516.46,35.18v9.65c0,.24.79,1.22,1.07,1.49,1.06.01.66-5.32.41-6.41-.12-.52-.5-.53.45-.45l14.35,5.8c-1.39,1.75-1.01,4.32-.2,6.22.37,0,.19-3.75.27-4.45.05-.44.17-2.02.81-1.98v6.64c.4.52,3.82,1.67,3.42.44l-4.08-9.64-16.5-7.3ZM459.01,36.89h-6.65c-.3,0-.52.23-1.38.13s-1,.26-.55.72l8.35,3.01.22-3.86ZM511.53,39.47c-2.29,0-4.57,0-6.86,0l-.64.64v8.36l8.15-.43c-.35-1.71,1.3-7.93,0-8.82-.31-.26-.54.25-.65.25ZM501.45,48.47v-8.36c0-1.1-2.25-.23-2.79-.22-1.85.05-4.4-.5-5.78.65v8.36l8.57-.43ZM534.46,43.32h7.29c.21-1.01-.13-.69-.55-.96-.64-.41-5.76-2.91-6.1-2.88-1.12.89-.51,2.56-.64,3.84ZM481.73,40.75v8.36l.97.56c2.4-1.03,5.59.54,7.61-.99v-8.15c-.6-.97-.92-.21-1.07-.21h-6.43c-.14,0-.65.57-1.07.43ZM479.16,40.75l-8.15.43v8.36c.54.8,1.5.7,2.36.67,1.66-.05,3.36-.74,5.07-.52l.71-.58v-8.36ZM520.31,47.18c-.22-1.09.72-6.8-1.06-6.43-.95.2-1.44,6.79,1.06,6.43ZM468.44,41.18l-8.17.63-.21,8.4c.62.92,2.12,0,3.03-.02,1.78-.06,3.58.04,5.35,0v-9ZM523.32,48.04l-.06-5.3-2.08-.71c.24,2.19-1.1,6.12,2.14,6ZM524.17,42.9v6h1.71s.03-4.94.03-4.94l-.1-.56-1.65-.5ZM528.43,44.21l-1.25-.03c.27,1.75-1.03,6.36,1.72,5.36l-.47-5.33ZM531.03,51.04c-.16-2.11.52-4.52-.64-6.43-1.03,1.51-1.3,5.57.64,6.43ZM513.46,60.9v-12.86c-.63-.07-.77,1.12-.82,1.54-.24,2.25-.47,5.83-.49,8.1-.01.95-.15,3.51,1.31,3.22ZM516.89,54.04c1.64-1.07.76-3.98.42-5.57-1.85,1.17-.36,3.86-.42,5.57ZM511.74,49.75c-.42-1.4-1.2-.43-1.5-.43h-9.22v.43h10.72ZM519.85,48.93l-1.25-.03c.03.92-.27,5.29.64,5.58l1.08-.26-.47-5.29ZM500.17,49.75h-9.43v.43h9.43v-.43ZM522.83,49.82l-1.65-.07c.18,2.04-.99,5.71,2.14,5.57l-.49-5.51ZM489.02,50.18h-7.29v.43h7.29v-.43ZM480.87,50.62c-1.21.03-2.44-.05-3.65,0-.52.02-1.59-.32-1.49.42,1.21-.03,2.44.05,3.65,0,.52-.02,1.59.32,1.49-.42ZM503.17,50.61h-1.27c-.26,1.47-1.38,4.98,1.28,4.07v-4.07ZM506.17,50.61l-1.66.06c-.71,1.71-.91,5.86,1.59,3.52l.07-3.58ZM508.74,50.61c-2.58-.69-2.42,5.3,0,4.07v-4.07ZM511.31,50.61l-1.31.19-.4,3.67,1.31-.19.4-3.67ZM524.21,55.71l1.62-.22c-.03-1.66.86-5.67-1.66-4.66l.04,4.88ZM468.87,51.05h-1.71v.42h1.71v-.42ZM474.87,51.05h-3v.42h3v-.42ZM493.53,51.04c-.99.21-1.1,4.6.42,4.28.99-.21,1.1-4.6-.42-4.28ZM497.59,51.04l-1.31.19-.34.52-.06,3.15h1.71s0-3.86,0-3.86ZM500.59,51.04l-1.95.4-.19,3.46,1.76-.25.38-3.61ZM486.44,51.47l-1.45.05c-1.22.41-.67,2.79-.2,3.74l1.65.07v-3.86ZM489.02,51.47l-1.31.19-.34.52-.06,3.15h1.71s0-3.86,0-3.86ZM491.59,51.47l-1.32.25c-.6,1.4-.88,4.33,1.33,3.39v-3.64ZM528.46,51.47h-1.71c.11,2.05-.84,5.29,2.14,5.14l-.43-5.14ZM475.3,55.76c-.16-1.34,1.38-3.47-.63-3.86-1.23.83-1.52,2.45-.67,3.67l1.31.19ZM477.87,51.9c-1.81-.07-1.69,2.94-.63,3.85,1.39-.09.31-3.03.63-3.85ZM480.87,51.9c-2.26-.84-2.12,3.63-1.06,3.85,1.49.31,1.04-3.11,1.06-3.85ZM483.44,51.9l-1.32.25c-.36,1.15-.9,2.69.26,3.6,1.49.31,1.04-3.11,1.06-3.86ZM439.29,52.97v10.07c1.38.16,1.59-.22,1.74-1.48.13-1.15-.03-8.8-.45-9.24-.46-.14-1.18.28-1.28.64ZM442.72,53.18l-.85-.85v.86s.85,0,.85,0ZM444.01,52.75l6.85,1.51c-1.45-1.04-3.73-1.59-5.47-1.82-.47-.06-1.47-.48-1.38.31ZM452.15,52.33h-3v.42h3v-.42ZM465.01,52.33c-1.88-.29-1.55,3.66-.63,3.85l.9-.88-.26-2.98ZM467.58,52.33c-1.81-.07-1.69,2.94-.63,3.85,1.39-.09.31-3.03.63-3.85ZM469.52,52.33c-.88.19-1.04,3.31,0,3.85,1.41-.46,1.54-4.17,0-3.85ZM472.73,52.32h-1.28v3.43h1.28v-3.43ZM531.03,57.04c.83-5.09-2.22-7.09-1.64-.71l.34.52,1.31.19ZM460.29,52.76c-.97-1.28-1.35,3.04-.21,3.43l.21-3.43ZM462.86,52.76c-2.16-.8-2.16,3.2-1.06,3.43,1.41.3,1.09-2.71,1.06-3.43ZM456,53.19h-.85v.42h.85v-.42ZM457.72,55.33l-.85-2.14-1.29,1.5,2.14.64ZM532.75,56.61l-.21-3.43c-1.14.38-.76,4.71.21,3.43ZM454.08,53.61v.43c.28-.14.28-.29,0-.43ZM535.75,54.04l1.7.22c-.45-.67-.92-.75-1.7-.64v.42ZM541.75,56.62l-8.15-2.57v3c3.03-.33,4.59-1.55,7.57.36l.57-.79ZM442.72,54.47h-.86v7.5c0,.07.58.68.86.64v-8.15ZM452.79,54.47v.43c.28-.14.28-.29,0-.43ZM532.32,64.33l-.85-5.79-14.81-3.65.31,5.94,15.35,3.51ZM539.39,54.47v.43c.28-.14.28-.29,0-.43ZM444.86,54.9h-.86v7.72h.86v-7.72ZM453.65,54.9v.43c.28-.14.28-.29,0-.43ZM545.18,55.76c-1.86.28-3.42-.38-5.14-.86,1.08,1.45,3.51.93,4.94,1.7l.2-.85ZM447.86,55.33h-.86v7.72c.28.03.86-.57.86-.64v-7.07ZM455.58,56.18l-.85-.85v.86s.85,0,.85,0ZM511.32,55.33l-52.72,2.36c.83,1.32,1.16,2.84.51,4.31l.57.62,51.64-1.71v-5.58ZM450.86,56.19l-1.28,1.07v5.35c1.11.19.77-.17.98-.93.5-1.83.27-3.63.3-5.5ZM456.86,56.19h-.85v.42h.85v-.42ZM452.15,56.61v6c1.01-.32.9-2.37.89-3.22,0-.72.03-2.59-.89-2.78ZM546.9,59.4c-.25,2.62,0,5.87,0,8.57,0,.07,1.09,1.49-.21,1.07-.38-.13-.77-.59-1.41-.74-13.9-3.27-25.83-6.73-40.17-6.52-11.18.16-22.35.5-33.44,1.29l-32.82.63c-.04.74.64,1.08,1.18,1.39,1.09.62,8.25,3.38,9.32,3.54,1.39.21,0-1.15.22-1.29,9.22-.63,18.42-.56,27.65-.87,9.71-.32,19.42-.57,29.18-.84,3.24-.09,7.51-.94,10.68-.89,5.86.09,15.89,4.11,22.43,5.04,1.3.19,8.41,1.15,8.69-.17-.34-1.44.36-2.88.37-4.17,0-.61-.39-1.38-.41-2.17-.05-2,.69-5.42-.83-6.66.39,1.02-.37,2.12-.43,2.79ZM455.14,57.47c-.6-.64-.78.04-.85.64-.09.71-.22,4.5.64,4.5,1.4-1.36.35-3.51.21-5.14ZM457.72,62.19c-.14-1.22.57-3.22-.85-3.86.31.98-.84,4.17.85,3.86ZM536.61,65.19v-6.22c0-.07-.58-.68-.86-.64v6.86h.86ZM534.04,58.76h-.86v6h.86v-6ZM538.32,66.05v-7.29h-.43v7.29h.43ZM539.61,59.61v6.43c1,.06.76.15.86-.64.17-1.35.44-4.99-.86-5.8ZM541.75,59.61l-.87.65.87,6.21v-6.86ZM543.04,60.69c.23,1.94-.17,4.23,0,6.22,1.14.17.86-.2.88-1.08.04-1.88-.99-3.66-.15-5.58l-1.15-.62c-.18.52.41.91.43,1.07ZM545.61,59.61h-.86v7.72h.86v-7.72ZM515.17,66.04c-10.8.6-21.59.51-32.39.84-5.5.17-11.19.73-16.69.89-5.07.15-10.22-.44-15.21.43l-.02,5.55,64.31-2.14v-5.58ZM539.14,70.8l-23.11-4.76.25,5.62,22.26,5.52c.35-2.1.87-4.23.59-6.38Z"/>
      <path class="cls-1" d="M478.73,74.62l-5.14,9.43,1.36-.99,3.35-5.43-.75,8.31,1.82,1.55.22-11.15,15,9.86c-3.55-3.76-8.81-6.16-12.64-9.44-.33-.28-1.99-1.72-1.51-2.13,7.35-.15,14.74.18,22.1.02,2.66-.06,5.22-.66,8.13-.45.64.05,1.24-.33,1.06.64-7.87,6.83-17.31,11.6-25.95,17.38l-1.37-.34c-2.77-2.36-6.08-3.92-9.08-5.93-3.89-2.61-8.52-6.98-12.33-9.1-1.02-.57-1.89-1.1-3.14-.93l23.58,16.93c-7.53,4.76-14.32,10.68-21.81,15.49-.61.39-3.45,2.3-3.91,1.87l15.22-24.43-16.72,24.87c-.77.01.57-6.38.63-7.08.68-7.73,1.22-15.42,2.15-23.15.23-1.9-.51-4.18,1.07-5.78h18.65ZM475.51,75.91c-3.78.07-7.58-.05-11.36,0,1.87,2.03,5.52,5.14,7.92,6.44.43.23.67.54,1.29.43l3.22-6.67c-.66-1.05-.89-.21-1.06-.21ZM509.17,75.48l-26.58.63c4.47,2.53,8.25,6.26,12.65,8.77,4.74-2.85,10.1-5.41,13.93-9.4ZM457.72,106.34c.83-9.56,2.56-19.11,2.57-28.72l-2.56,21.22c.17,2.08-.12,4.07-.31,6.12-.04.47-.51,1.46.3,1.37ZM492.45,86.2l-11.57-7.72-.35,9.13,4.66,3.53h.81c1.45-1.55,4.63-2.63,6.01-3.9.38-.35.58-.43.44-1.05ZM463.29,79.34c-1.88-.41.55,2.65.94,3.56,1.05,2.44,1.84,5.03,2.82,7.49.26.65-.25,1.16.96.94l-4.72-12ZM462,80.19c-.6-.61-.78.03-.85.63-.94,8.06-1.22,16.22-2.57,24.23,1.14.24.74-.28,1.07-.84.99-1.69,6.88-11.07,6.95-11.86.28-2.77-4.19-9.06-4.6-12.16ZM465.01,81.05l3.64,8.14,2.75-3.64-6.39-4.5ZM476.58,85.34l.43-3.43c-.87.18-2.23,3.79-.43,3.43ZM473.63,87.52c-.58,1.54-3.04,4.16-3.08,5.73-.02.88,1.67,5.63,2.4,5.8.76-.25,2.47-1.76,2.8-2.34.83-1.45,1.28-9.6-2.12-9.2ZM477.01,90.05v6c4.51-1.73,4.15-4.31,0-6ZM471.87,99.91l-2.57-6.85c-.43,1.7.66,4.48,1.49,6.02.32.6-.04,1.06,1.07.83ZM461.16,107.2l8.8-6c.46-.69-1.43-5.14-1.73-5.13l-7.07,11.14Z"/>
      <path class="cls-1" d="M513.67,118.35c.15.04.75.71.64.85-1.91-.11-2.25,1.31-3.28,2.09-5.44,4.11-10.94,8.11-16.23,12.41l-14.63-12.29-3.17-.27-5.14,10.93c1.23,1.31,3.31-7.1,4.71-6.86.65,3.07-1.55,10.98,1.94,12.43.92.38.55-.66.62-1.08.76-4.25.59-8.81.02-13.06l2.12.66,12.45,10.27-9.7,8.33c-6.73-4.88-12.81-10.54-19.01-16.05-2.81-2.49-7.19-4.58-8.15-8.35h56.81ZM511.74,119.2h-51.66c-.32,0-.82.55-1.5,0l.2.86,12.02,10.71c.93.16.5-.19.67-.59,1.31-2.96,3.22-5.62,3.82-8.84h-10.93c-.13,0-2.11-.35-2.58-.43-.64-.11-1.32-.02-1.5-.86,16.64-.3,33.39,1.26,49.97.01l1.48-.88ZM508.31,121.35h-26.58s13.45,11.12,13.45,11.12c3.75-3.65,8.59-6.43,12.41-9.91.42-.38.92-.39.72-1.21ZM480.45,125.21c-.08,3.07.08,6.16.01,9.23-.02,1.14-.63,2.28-.46,3.39.16.98,3.25,3.75,4.02,3.62l7.99-7.02-11.56-9.22ZM475.3,134.21l.43-6.43-2.15,4.96.08.54,1.65.93Z"/>
      <path class="cls-1" d="M479.59,112.34c-1.09-.8.58-11.68,0-13.71-4.01,1.27-2.02,7.02-3,10.29-1.77-.98-1.96-3.43-2.81-5.14-.3-.61.1-1.08-1.05-.86-.02,1.8,3.4,11.78,4.28,12.24.8.42,2.08.03,2.85-.4l16.16-13.07,17.67,12.36.63,2.16-58.32-.2c-1.06-.6,1.39-2.66,1.77-2.98,5.23-4.41,13.09-9.86,18.86-13.72,2.8-1.87,5.94-3.37,8.69-5.34l9.7,7.02-15.42,11.36ZM480.02,110.63c.79.1,1.34-.45,1.92-.86,2.32-1.63,8.33-6.09,10.09-7.92.32-.33.98-.73.85-1.28l-7.51-5.24c-.25-.01-4.2,2.34-4.37,2.56-1.36,1.66.02,10.07-.98,12.74ZM475.72,105.48l.43-4.71c-.67.33-1.65,1.15-1.69,1.91-.02.38.62,2.67,1.26,2.8ZM513.03,115.34l-16.95-12.45-14.77,11.81,31.72.64ZM475.3,114.92l-3.64-10.71c-4.57,3.64-10.01,6.34-13.93,10.71h17.58Z"/>
      <path class="cls-1" d="M521.17,151.36c-.53.7-.78,0-.86-.64-.22-1.71.12-3.81.02-5.6-.42-7.51-1.3-16.09-.9-23.58.07-1.23.35-2.39.47-3.6l13.65.88c.89,2.69.23,5.55.48,8.31.14,1.54.71,3.2.84,4.73.24,2.74,1.07,7.9.9,10.28-.05.64-.14,1.35-.89,1.5l-1.3-13.72c-.75,0-.47,1.88-.44,2.37.25,3.77.81,7.56.87,11.34-1.14.1-.71.05-.84-.65-.09-.49-.45-2.03-.45-2.14v-7.72c0-.07-.42-1.25-.85-1.07.55,4.35-3.32,7.9-1.71,12.21-.04.86-1.44-.37-1.65-1.38-.29-1.45,1.68-6.48,2.13-8.41,1.09-4.69,2.32-9.61,2.51-14.42-.55-.73-.78.05-.85.64-.78,6.13-2.17,12.93-3.83,18.9-.15.55-.05,1.09-.67,1.46l-7.5-19.71c-.04,2.33.32,5.14.96,7.39.25.87,1.18,1.65,1.18,2.26,0,1.08-2.16,1.69-1.72,3.21.77-.06,1.58-2.88,2.36-1.72.6,4.73,6.69,10.56,2.36,14.58.13-1.73.61-3.01.32-4.83-.15-.94-3.1-7.5-3.55-7.6-2.28-.54-1.06,3.71-1.06,4.07v12.65ZM531.89,119.64c-3.61.09-7.31-.89-10.94-.43-.6.08-1.23.22-.63.85l9.23.88c.86-.01,2.02-.4,2.35-1.29ZM529.75,121.78l-8.14-.43,1.7,6.23c.47.53.75-.04,1.11-.2,1.67-.75,3.78-4.26,5.33-5.6ZM524.18,130.35c1.56-1.3,3.15-2.77,4.5-4.28.91-1.02,2.29-2.59,2.78-3.86-1.89,1.97-5.11,4.3-6.66,6.41-.43.58-.8.9-.62,1.74ZM530.61,126.5c-.58-.56-4.94,4.36-5.51,4.99l2.08,6.15,3.42-11.14Z"/>
      <path class="cls-1" d="M530.6,80.19l3.01,37.3-14.3-.92-.67-.64,5.54-21.16c.59.05.68.63.87,1.05,1.52,3.31,2.72,7.47,4.06,10.95.71,1.84,2.16,3.53,1.92,5.58l-8.36-6.43-.63.84c4.14,2.19,7.94,5.21,11.14,8.58l-8.14-21.26c-.14-1.41,3.61-12.12,4.59-13.35.27-.34,0-.79.98-.54ZM531.89,107.2l-1.92-23.57c-.8.55-.58,1.02-.55,1.79.22,4.88,1.17,10.22,1.61,15.15.11,1.27-.1,2.57,0,3.85.05.59.21,2.59.85,2.79ZM530.17,103.34l-1.71-18-2.14,9.17,3.85,8.83ZM524.18,97.77l-1.63,6.6,6.13,4.97-4.5-11.56ZM521.83,108.06c-.32.07-1.77,5.56-1.87,6.32-.06.49-.15.87.34,1.2.56.37,9.37.7,10.84.75.21,0,1.22.43,1.18-.34-.04-.86-9.62-8.12-10.49-7.93Z"/>
      <path class="cls-1" d="M513.45,76.77l1.28,36.01-17.14-12.22,7.5-6.07,8.79,5.86-8.14-6.64c.9-.42,8.5-5.88,7.71-6.64l-8.43,5.91c-1.75.06-7.4-5.77-8.29-5.06-.28,1.11.4.75.8,1.11.98.87,6.66,4.38,6.48,5.1l-7.61,5.3-9.53-6.15,26.57-16.5ZM498.45,87.06l6.42,4.95,7.94-6.25-.22-7.71-14.14,9.01ZM502.31,94.33c.17-.72-.24-.86-.65-1.27-.74-.73-5.17-3.84-5.99-3.84l-6.65,4.05,7.15,5.29,6.14-4.23ZM513.03,90.06c-.4-.46-5.86,3.85-5.57,4.28l6,3.43-.43-7.71ZM513.37,101.71l-8.28-6-5.78,4.42c-.15.61.55.92.89,1.25,3.35,3.15,9.58,5.79,13.05,9.25.9.26.64-.5.65-1.08.07-2.32-.83-5.32-.54-7.83Z"/>
      <path class="cls-1" d="M529.32,76.34c-1.18,4.93-2.8,9.76-4.61,14.49-.21.54.19,1.13-.75.94-1.98-4.42-3.23-9.79-5.16-14.14-.23-.51-.42-1.18-1.06-1.29.86,5.84,3.23,11.37,6,16.52l-4.93,16.91-1.93-36,12.43,2.58ZM525.46,76.77l-6.43-1.29,1.72,4.71c.4.29,4.2-2.75,4.71-3.42ZM528.03,77.2c-1.88.42-4.35,2.11-5.88,3.33-.51.41-1.17.48-.98,1.38.19.19,2.95-1.66,3.39-1.96,1.13-.76,2.55-1.76,3.47-2.75ZM527.17,79.34l-5.08,3.73c-.25.9,1.3,5.27,1.87,5.26,1.09-.86,3.63-8.44,3.21-8.99ZM519.03,83.63h-.85v.42h.85v-.42ZM519.45,103.77l2.96-10.08c-1.16-2.55-1.85-5.91-3.81-7.92l.85,18Z"/>
      <path class="cls-1" d="M516.46,153.93c-.67.13-.99-.07-1.51-.41-1.18-.75-6.2-5.6-6.84-5.6l-7.9,6.51c1.06,2.64-.74,1.88-1.32.17.12-.5,7.05-5.67,7.74-6.85.4-.68.52-1.15.41-1.95-.94-1.04-8.65,7.72-9.64,7.72l-11.78-9.25,8.32-7.5,1.64-.34,20.03,16.23-.4-1.95-18.88-15.84,18.21-14.78c1.01-.02.58,4.82.65,5.77.65,9.3,1.26,18.72,1.28,28.08ZM514.31,122.21l-16.28,12.64,9.3,7.87c.69.26,1.08-.01,1.65-.35.46-.27,5.57-5.09,5.68-5.47l-.34-14.7ZM504.83,144.55l-9.23-7.27c-.71-.14-8.33,6.02-8.33,7.02l10.11,8.25c1.49-2.17,5.86-4.65,7.09-6.52.31-.47.61-.88.36-1.47ZM515.17,138.5c-.5-.53-5.87,4.68-6.42,5.36l1.06,1.06c.66-.81,6.18-5.55,5.36-6.42ZM515.17,141.5l-2.8,2.13-1.46,1.88,4.47,4.13c.71-.35-.22-1.26-.22-1.5v-6.64Z"/>
      <path class="cls-1" d="M461.58,148.78l3.87-7.46c-2.91-5.67-4.86-12.27-8.58-17.4l-1.72,25.51-1.28,1.07c.87-7.16,1.67-14.44,2.14-21.65.13-2.05-.06-3.52.34-5.67.15-.83-.04-.52-.76-.54l-2.15,27.86-.86-1.1c1.11-8.2,1.03-16.64,2.16-24.83.09-.68.47-3.62,1.06-3.64,1.54.77,2.56,2.41,3.39,3.89,2.76,4.98,4.45,11.2,7.48,16.13.15.35-.02.64-.1.97-.18.74-3.98,7.83-4.97,6.86Z"/>
      <path class="cls-1" d="M475.3,139.57c-.08-.29-3.42-3.62-3.86-3.22.2,1.75-1.83,3.1-2.07,4.61-.23,1.4.68,3.74,1.15,5.11l-.79.57-1.72-5.75,3-6.25c-1.9-.39-2.76,6.69-4.28,5.57-1.48-4.96-5-9.34-5.58-14.57l20.8,17.99c.42.46.38.52-.07.89-.95.8-2.37,2.17-3.59,2.11l2.14-2.35c-1.55-1.28-2.23-3.43-4.28-4.07v6.43h-.86v-7.07ZM468.78,133.44l-5.91-4.8,3.86,9.43c.84.79,2.69-3.54,2.05-4.63Z"/>
      <path class="cls-1" d="M492.02,157.78c.37-1,2.76-2.18,2.08-3.37l-9.39-7.14-2.35.65c-1.49,0,1.3-3.51,2.16-2.16l11.77,9.67c-1.36.74-2.7,2.31-4.28,2.35Z"/>
      <path class="cls-1" d="M468.44,146.64l-1.71-1.28-1.72,1.71c.34-1.54,1.22-3.2,2.36-4.28l1.07,3.85Z"/>
      <path class="cls-1" d="M498.88,157.78c-2.39-1.03-2.72,1.98-5.14,1.71l3.23-3.43,1.92,1.71Z"/>
      <path class="cls-1" d="M539.18,52.76c-.96-.37-1.33-1.62-1.28-2.57.3-.4,1.51,2.06,1.28,2.57Z"/>
      <path class="cls-1" d="M537.89,49.75c-.21.44-1.02-1.15-.85-1.71.82.21.97.95.85,1.71Z"/>
      <polygon class="cls-1" points="528.46 144.5 527.61 145.36 527.61 144.5 528.46 144.5"/>
    </g>
  </g>
</svg>